<svg xmlns="http://www.w3.org/2000/svg" width="1024" height="1024" viewBox="0 0 1024 1024">
<g>
<path d="M 327.36 721.50 C322.40,727.00 316.05,734.53 313.23,738.23 C309.39,743.29 308.00,744.53 307.63,743.23 C307.36,742.28 306.19,736.33 305.02,730.00 C296.41,683.14 280.74,657.92 254.72,649.04 C241.16,644.41 218.14,642.81 197.09,645.03 C191.92,645.57 187.50,645.83 187.28,645.61 C186.09,644.42 253.60,612.11 282.58,600.00 C326.97,581.45 360.34,570.21 404.00,559.11 C444.74,548.74 478.86,543.16 528.00,538.79 C550.98,536.75 648.33,537.08 677.50,539.30 C704.21,541.34 752.46,546.15 775.50,549.07 C802.17,552.45 852.21,559.87 852.89,560.55 C853.13,560.80 835.60,561.01 813.92,561.02 C696.48,561.07 622.27,568.12 551.08,585.99 C491.48,600.94 446.01,621.75 399.50,655.34 C377.16,671.47 350.02,696.36 327.36,721.50 ZM 662.05 516.88 C655.13,519.86 643.61,520.59 636.25,518.52 C616.89,513.07 604.86,497.34 603.34,475.50 C601.60,450.40 617.29,429.47 640.56,425.85 C652.31,424.02 665.51,427.90 673.65,435.58 C675.65,437.46 677.44,439.00 677.64,439.00 C677.84,439.00 678.00,436.30 678.00,433.00 L 678.00 427.00 L 697.00 427.00 L 697.00 518.00 L 678.00 518.00 L 678.00 505.98 L 672.74 510.26 C669.84,512.62 665.04,515.60 662.05,516.88 ZM 512.50 517.65 C496.73,524.30 475.95,518.12 464.92,503.51 C456.98,493.00 453.89,478.64 456.42,464.11 C459.19,448.26 467.25,437.08 480.69,430.44 C487.48,427.08 489.56,426.54 496.99,426.20 C507.53,425.71 514.15,427.92 523.58,435.06 L 530.00 439.92 L 530.00 429.00 L 547.00 429.00 L 547.00 518.00 L 530.00 518.00 L 530.00 506.08 L 523.75 510.81 C520.31,513.41 515.25,516.49 512.50,517.65 ZM 812.12 515.44 C807.56,517.75 805.96,518.00 795.78,517.95 C787.38,517.92 783.33,517.45 779.91,516.11 C760.52,508.52 749.77,488.09 752.91,464.78 C755.01,449.21 765.01,435.20 778.65,428.74 C784.55,425.95 786.80,425.45 794.86,425.15 C803.88,424.81 804.46,424.92 811.36,428.34 C815.28,430.28 820.24,433.48 822.38,435.44 C824.51,437.40 826.42,439.00 826.63,439.00 C826.83,439.00 827.00,436.52 827.00,433.50 L 827.00 428.00 L 844.00 428.00 L 844.00 517.00 L 827.00 517.00 L 827.00 511.00 C827.00,507.70 826.71,505.00 826.36,505.00 C826.01,505.00 823.80,506.77 821.45,508.94 C819.10,511.10 814.90,514.03 812.12,515.44 ZM 238.14 518.02 C230.76,520.32 216.84,520.61 210.50,518.60 C185.41,510.63 171.07,485.36 177.53,460.53 C183.02,439.47 201.34,426.00 224.50,426.00 C243.91,426.00 260.42,435.99 268.09,452.38 C275.37,467.94 272.10,490.18 260.54,503.69 C255.71,509.33 245.89,515.61 238.14,518.02 ZM 214.70 502.62 C220.03,504.62 232.44,503.83 237.65,501.18 C242.71,498.60 248.65,492.05 251.23,486.21 C254.04,479.85 254.05,466.12 251.24,459.91 C246.20,448.76 236.31,442.00 225.05,442.01 C216.21,442.01 212.01,443.34 206.13,447.99 C196.70,455.45 192.03,469.74 195.34,481.07 C198.46,491.80 204.90,498.95 214.70,502.62 ZM 493.32 502.62 C499.12,504.52 509.48,503.82 514.63,501.19 C520.18,498.36 526.09,491.43 528.37,485.09 C530.91,478.03 530.32,464.36 527.23,458.38 C521.88,448.07 512.33,442.00 501.43,442.00 C493.31,442.00 484.14,446.48 479.32,452.80 C468.77,466.63 472.08,490.70 485.68,499.11 C487.59,500.29 491.03,501.87 493.32,502.62 ZM 789.70 501.62 C794.60,503.45 806.39,502.90 810.74,500.64 C820.57,495.54 826.07,486.72 826.78,474.92 C827.63,460.87 822.61,450.59 812.00,444.60 C807.11,441.84 805.62,441.50 798.50,441.52 C792.22,441.53 789.61,442.00 786.38,443.72 C776.08,449.19 770.95,457.08 770.21,468.58 C769.17,484.79 776.11,496.55 789.70,501.62 ZM 642.99 502.07 C647.20,503.35 654.40,503.08 659.13,501.47 C665.78,499.21 670.50,494.77 674.16,487.34 C677.03,481.49 677.40,479.82 677.35,472.60 C677.27,459.20 672.24,450.28 661.85,445.09 C654.46,441.39 648.53,441.08 640.76,443.99 C634.98,446.15 628.42,452.14 625.43,458.00 C622.81,463.11 622.27,477.28 624.44,483.81 C627.16,492.01 634.87,499.59 642.99,502.07 ZM 735.09 476.75 L 735.00 518.00 L 717.00 518.00 L 717.00 381.00 L 735.84 381.00 L 735.51 408.25 C735.33,423.24 735.14,454.06 735.09,476.75 ZM 441.00 381.00 L 441.00 518.00 L 423.00 518.00 L 423.00 381.00 ZM 587.00 383.00 L 587.00 520.00 L 569.00 520.00 L 569.00 383.00 ZM 366.45 606.91 C367.48,608.58 368.91,608.28 378.56,604.40 C390.30,599.67 391.03,599.24 390.36,597.48 C389.53,595.32 388.21,595.58 377.39,599.99 C366.89,604.28 365.40,605.22 366.45,606.91 ZM 459.45 573.91 C460.36,575.38 461.24,575.31 468.89,573.07 C472.53,572.01 477.41,570.64 479.75,570.03 C483.98,568.93 485.48,566.50 482.61,565.40 C481.01,564.79 461.24,570.36 459.76,571.84 C459.22,572.38 459.08,573.31 459.45,573.91 ZM 277.65 647.53 C278.52,649.80 280.34,649.35 290.06,644.47 C299.00,639.98 301.25,637.85 299.21,635.81 C297.65,634.25 276.89,645.54 277.65,647.53 ZM 507.45 561.91 C508.31,563.31 508.77,563.29 519.50,561.45 C531.39,559.41 532.00,559.19 532.00,556.93 C532.00,556.79 532.00,556.66 532.01,556.54 C532.02,556.08 532.02,555.73 531.86,555.50 C531.39,554.83 529.43,555.20 521.70,556.66 C521.01,556.79 520.28,556.93 519.50,557.08 C508.27,559.19 506.26,560.00 507.45,561.91 ZM 556.00 554.16 C556.00,555.94 556.78,556.04 568.24,555.78 C578.60,555.54 580.52,555.25 580.79,553.88 C581.28,551.31 578.28,550.82 566.75,551.56 C557.09,552.19 556.00,552.45 556.00,554.16 ZM 412.62 588.46 C413.44,590.59 414.65,590.44 425.23,586.87 C435.22,583.49 437.36,582.20 436.16,580.25 C435.48,579.15 426.05,581.71 413.27,586.47 C412.59,586.72 412.30,587.62 412.62,588.46 ZM 321.18 626.25 C320.70,628.81 322.37,628.41 333.99,623.16 C341.11,619.94 344.60,617.82 344.85,616.56 C345.15,615.01 344.74,614.80 342.31,615.29 C337.07,616.34 321.52,624.40 321.18,626.25 ZM 878.61 445.25 C877.58,447.86 876.29,450.00 875.76,450.00 C875.22,450.00 875.01,449.44 875.28,448.75 C878.42,440.87 879.36,439.00 880.19,439.00 C880.73,439.00 881.02,439.34 880.83,439.75 C880.65,440.17 879.65,442.64 878.61,445.25 ZM 904.52 359.04 C905.21,360.15 904.25,360.10 897.75,358.69 C895.14,358.13 893.00,357.26 893.00,356.77 C893.00,356.27 893.79,356.08 894.75,356.35 C895.71,356.61 898.17,357.11 900.21,357.45 C902.26,357.80 904.20,358.51 904.52,359.04 ZM 876.35 465.25 C876.68,467.86 876.76,470.00 876.52,470.00 C875.32,470.00 874.00,465.67 874.03,461.82 C874.07,456.43 875.47,458.51 876.35,465.25 ZM 843.50 355.83 C841.98,357.25 831.85,357.96 832.29,356.61 C832.49,356.00 835.32,355.36 838.58,355.20 C842.30,355.00 844.13,355.24 843.50,355.83 ZM 822.41 358.40 C820.46,359.15 811.46,359.20 812.21,358.46 C813.16,357.50 823.04,356.26 823.52,357.04 C823.78,357.45 823.28,358.06 822.41,358.40 ZM 885.00 356.00 C885.00,357.10 881.65,357.10 875.50,356.00 C871.95,355.36 872.26,355.27 878.25,355.14 C882.18,355.06 885.00,355.42 885.00,356.00 Z" fill="rgb(9,41,94)"/>
<path d="M 371.83 529.13 C355.44,549.55 345.01,560.30 342.86,559.01 C338.99,556.68 302.56,514.66 295.85,504.78 C277.67,478.00 279.04,448.39 299.41,427.66 C307.40,419.53 312.30,416.33 322.27,412.72 C332.90,408.88 348.05,407.89 358.01,410.39 C369.51,413.28 377.93,418.14 385.83,426.46 C400.66,442.07 406.24,461.88 401.06,480.52 C396.85,495.69 391.39,504.77 371.83,529.13 ZM 409.76 366.25 C403.49,375.16 401.99,375.22 402.01,366.58 C402.03,360.26 404.07,352.43 407.55,345.30 C410.56,339.17 425.16,323.30 434.24,316.32 C445.02,308.02 440.88,307.06 420.25,313.07 C406.96,316.94 395.09,322.86 383.53,331.39 C370.05,341.33 368.60,340.05 377.62,326.15 C380.71,321.39 386.90,313.89 391.37,309.47 C405.50,295.51 421.56,289.41 447.00,288.34 C461.65,287.72 465.45,288.15 515.50,296.09 C605.43,310.35 636.76,313.55 699.50,314.91 L 734.50 315.67 L 745.90 320.35 C774.48,332.11 786.96,344.07 790.17,362.79 C791.34,369.58 790.97,373.00 789.09,373.00 C788.55,373.00 785.97,370.19 783.34,366.75 C778.84,360.85 763.31,343.87 761.80,343.18 C761.41,343.01 754.68,346.61 746.83,351.18 C738.99,355.76 732.22,359.65 731.78,359.83 C731.35,360.02 731.00,353.15 731.00,344.58 C731.00,343.25 731.01,342.02 731.01,340.89 C731.04,333.74 731.06,330.51 729.54,329.44 C728.29,328.56 725.99,329.16 721.79,330.27 C720.99,330.48 720.11,330.71 719.17,330.95 C697.63,336.42 668.57,339.57 649.00,338.55 C626.74,337.39 600.02,334.98 576.50,332.02 C531.22,326.31 521.65,325.55 495.50,325.57 C475.38,325.58 469.19,325.91 463.77,327.27 C443.45,332.38 423.40,346.84 409.76,366.25 ZM 366.50 313.07 C358.78,316.88 351.80,319.97 350.99,319.93 C350.17,319.89 347.48,318.96 345.00,317.86 C319.88,306.73 269.65,300.70 229.60,304.02 C217.15,305.05 196.19,308.31 189.72,310.22 C186.89,311.05 185.64,311.04 184.78,310.18 C181.96,307.36 194.08,299.42 209.31,294.09 C221.12,289.97 234.61,287.38 251.42,286.04 C265.04,284.94 265.66,284.79 279.42,279.08 C311.88,265.62 342.92,255.74 370.50,250.10 C384.59,247.21 409.20,243.30 424.49,241.52 C439.95,239.71 512.49,239.37 529.14,241.03 C575.05,245.59 608.16,258.27 644.87,285.32 L 651.23 290.01 L 657.60 284.05 C665.87,276.32 670.05,275.25 674.11,279.80 C676.99,283.02 678.98,288.52 678.99,293.25 C679.00,296.65 678.10,296.68 673.37,293.47 C666.10,288.54 662.44,289.35 657.37,297.02 C655.92,299.21 654.15,301.00 653.44,301.00 C652.72,301.00 646.37,297.13 639.32,292.41 C624.41,282.42 614.91,277.43 599.22,271.37 C587.92,267.00 585.00,266.27 585.00,267.82 C585.00,268.28 586.12,271.96 587.50,276.00 C590.23,284.04 590.60,287.00 588.87,287.00 C588.25,287.00 582.26,281.38 575.56,274.50 L 563.37 262.00 L 557.83 262.00 C543.69,262.00 487.24,269.21 452.00,275.51 C418.14,281.57 404.54,283.73 403.25,283.25 C398.58,281.51 403.21,279.38 452.87,260.40 C472.71,252.82 473.75,250.99 459.33,249.03 L 451.17 247.93 L 411.24 265.94 L 371.31 283.96 L 357.40 284.93 C349.76,285.47 337.76,286.21 330.75,286.58 C315.63,287.36 315.34,287.07 323.00,278.69 C331.36,269.55 330.08,269.09 313.85,275.44 C296.45,282.24 288.58,285.76 288.19,286.92 C288.00,287.50 288.89,288.43 290.17,289.00 C293.41,290.43 349.71,305.91 354.00,306.56 C356.43,306.92 361.49,305.86 370.50,303.09 C378.59,300.61 383.85,299.45 384.44,300.04 C386.30,301.90 380.36,306.22 366.50,313.07 ZM 333.50 504.11 C340.99,506.29 343.89,506.35 351.78,504.49 C364.41,501.51 372.14,495.54 377.55,484.59 C383.58,472.40 383.31,461.27 376.70,448.68 C371.09,437.99 360.84,431.54 347.57,430.34 C340.22,429.68 329.37,432.01 323.36,435.53 C310.44,443.10 302.70,461.49 306.39,475.86 C308.51,484.13 311.04,488.83 316.32,494.26 C321.47,499.56 325.20,501.70 333.50,504.11 ZM 353.86 491.07 C348.64,493.73 338.88,493.62 333.50,490.84 C324.34,486.11 319.01,477.69 319.03,468.00 C319.09,443.65 350.40,433.57 363.71,453.62 C366.81,458.28 367.49,460.27 367.83,465.65 C368.51,476.40 363.02,486.40 353.86,491.07 ZM 908.00 492.10 C908.00,492.60 907.33,493.00 906.50,493.00 C905.67,493.00 905.00,492.32 905.00,491.48 C905.00,490.65 901.17,484.24 896.50,477.24 C888.51,465.27 888.00,464.20 888.00,459.22 C888.00,451.01 892.62,443.60 899.32,441.07 C903.86,439.34 911.66,439.79 916.04,442.02 C922.13,445.13 925.50,450.99 925.50,458.48 C925.50,464.51 925.35,464.84 916.75,477.91 C911.94,485.22 908.00,491.61 908.00,492.10 ZM 293.98 343.43 C289.87,344.37 284.57,345.99 282.21,347.03 L 277.92 348.92 L 280.01 345.98 C282.53,342.44 296.23,329.89 301.41,326.37 C307.34,322.33 313.19,320.05 317.62,320.02 C320.92,320.00 322.71,320.77 326.62,323.89 C337.63,332.65 340.91,341.76 334.73,346.36 C332.24,348.21 331.62,348.29 328.73,347.10 C320.23,343.64 317.02,342.83 309.53,342.31 C303.76,341.90 299.33,342.22 293.98,343.43 ZM 270.75 327.64 C266.34,332.24 262.45,336.00 262.11,335.99 C261.78,335.99 259.16,333.50 256.30,330.46 C250.05,323.81 244.07,320.88 228.96,317.08 C218.28,314.38 214.85,312.82 216.34,311.33 C217.67,309.99 262.18,309.68 269.71,310.95 C282.73,313.15 282.84,315.04 270.75,327.64 ZM 282.83 366.92 C266.84,369.43 254.47,369.99 239.00,368.91 C214.50,367.20 188.79,360.88 192.25,357.41 C192.55,357.12 200.38,357.88 209.65,359.11 C223.10,360.89 231.65,361.36 252.00,361.42 C266.02,361.46 282.34,361.15 288.25,360.72 C297.48,360.05 299.00,360.15 299.00,361.43 C299.00,363.82 295.96,364.85 282.83,366.92 ZM 899.92 465.08 C905.98,471.14 917.01,466.69 917.00,458.20 C916.99,455.23 913.35,450.39 910.12,449.05 C907.60,448.01 906.41,448.00 903.97,449.01 C896.74,452.01 894.75,459.91 899.92,465.08 Z" fill="rgb(16,147,9)"/>
<path d="M 819.66 358.85 C812.50,360.28 812.03,359.97 810.40,356.79 C809.47,354.98 804.55,347.42 799.48,340.00 C787.19,322.01 785.68,318.91 785.62,311.50 C785.54,301.01 791.57,291.39 801.24,286.57 C817.16,278.63 837.55,289.95 839.67,307.90 C840.62,315.91 838.06,322.07 826.73,339.02 C821.04,347.53 816.02,355.10 815.58,355.83 C814.95,356.88 815.67,357.10 818.85,356.88 C819.65,356.82 820.39,356.80 821.02,356.82 C817.89,356.99 812.87,357.79 812.21,358.46 C811.66,359.00 816.35,359.12 819.66,358.85 ZM 805.30 322.04 C813.47,327.02 824.79,321.95 826.57,312.50 C827.43,307.88 824.08,300.61 820.14,298.57 C815.68,296.26 807.88,296.52 804.61,299.09 C796.86,305.18 797.22,317.11 805.30,322.04 ZM 370.91 739.61 C370.27,740.38 369.21,741.00 368.55,741.00 C367.88,741.00 363.87,736.64 359.63,731.31 C352.07,721.81 351.97,721.59 353.82,719.73 C355.68,717.87 355.89,717.92 364.84,722.42 C369.86,724.94 374.14,727.00 374.37,727.00 C374.60,727.00 373.48,722.61 371.90,717.25 L 369.02 707.50 L 371.14 705.73 C373.80,703.52 374.05,703.72 383.00,715.07 C389.50,723.31 389.79,723.88 388.11,725.40 C387.14,726.28 386.14,727.00 385.90,727.00 C385.65,727.00 383.45,724.25 381.01,720.90 C378.57,717.54 376.43,715.20 376.27,715.69 C376.11,716.18 377.12,719.93 378.51,724.03 C380.88,730.99 380.93,731.58 379.34,732.74 C377.91,733.79 376.47,733.34 370.32,729.97 C366.29,727.76 363.00,726.32 363.00,726.78 C363.00,727.24 365.04,730.01 367.53,732.92 C371.11,737.12 371.82,738.52 370.91,739.61 ZM 502.42 656.39 C501.55,656.73 500.66,657.00 500.45,657.00 C499.23,657.00 489.74,634.23 490.47,633.05 C492.01,630.55 495.88,632.27 502.70,638.50 C506.62,642.08 509.97,645.00 510.16,645.00 C510.35,645.00 510.34,640.71 510.15,635.47 C509.78,625.30 510.67,622.65 514.25,623.20 C515.62,623.42 517.42,626.35 520.56,633.50 C525.54,644.84 525.92,647.00 522.96,647.00 C521.41,647.00 520.21,645.43 518.00,640.50 C516.40,636.92 514.84,634.00 514.54,634.00 C514.24,634.00 514.11,637.92 514.25,642.72 C514.58,654.10 513.21,654.63 504.88,646.38 C498.47,640.04 497.66,640.42 501.50,648.00 C504.41,653.74 504.61,655.55 502.42,656.39 ZM 416.06 705.43 C415.34,706.29 414.25,707.00 413.63,706.99 C412.26,706.98 399.00,686.78 399.00,684.70 C399.00,682.01 401.85,682.00 403.96,684.68 C405.08,686.10 406.01,687.77 406.03,688.38 C406.05,689.00 407.11,688.31 408.39,686.86 C413.67,680.87 418.76,680.40 423.55,685.48 C429.76,692.06 428.90,697.97 421.17,701.91 C419.08,702.98 416.78,704.56 416.06,705.43 ZM 708.50 586.50 L 708.87 602.00 L 705.93 602.00 C703.29,602.00 703.00,601.68 702.99,598.75 C702.99,596.96 702.71,592.53 702.36,588.90 L 701.74 582.30 L 709.48 581.60 C715.97,581.01 717.53,581.17 719.07,582.56 C720.79,584.12 721.07,584.09 723.59,582.11 C726.28,579.99 729.44,579.46 732.46,580.62 C735.36,581.73 737.00,586.58 737.00,594.02 C737.00,600.83 736.90,601.13 734.75,600.82 C732.73,600.53 732.45,599.81 732.00,593.80 C731.43,586.20 730.46,584.71 726.37,585.17 C723.51,585.50 723.50,585.54 723.21,593.25 C722.93,600.61 722.80,601.00 720.60,601.00 C718.47,601.00 718.21,600.41 717.39,593.75 L 716.50 586.50 ZM 669.35 598.61 C669.97,605.90 669.94,606.00 667.60,606.00 C664.80,606.00 664.41,604.84 663.40,593.61 L 662.70 585.72 L 666.27 586.39 C668.39,586.79 670.10,586.64 670.48,586.03 C671.34,584.64 678.32,584.72 679.73,586.13 C680.57,586.97 681.55,586.71 683.56,585.13 C687.60,581.95 692.25,582.32 695.41,586.08 C696.84,587.77 698.00,590.18 698.00,591.44 C698.00,592.69 698.29,595.81 698.64,598.36 C699.25,602.82 699.18,603.00 696.74,603.00 C693.91,603.00 693.00,601.41 693.00,596.48 C693.00,590.79 691.43,588.00 688.22,588.00 C683.67,588.00 682.98,589.48 683.68,597.76 C684.31,605.16 684.30,605.18 681.91,604.84 C679.87,604.55 679.41,603.77 678.81,599.51 C677.69,591.66 677.13,590.18 675.04,589.51 C673.96,589.17 672.10,589.41 670.90,590.05 C668.87,591.14 668.77,591.72 669.35,598.61 ZM 398.32 717.88 C394.73,719.72 392.97,719.20 388.88,715.12 C383.64,709.88 383.49,705.31 388.40,700.40 C395.70,693.10 406.00,697.71 406.00,708.26 C406.00,711.72 403.00,715.47 398.32,717.88 ZM 656.47 606.90 C650.79,611.88 643.61,611.02 640.50,605.00 C636.84,597.92 640.79,590.37 648.72,589.31 C652.57,588.79 653.26,589.06 656.47,592.27 C659.33,595.13 660.00,596.56 660.00,599.80 C660.00,603.12 659.40,604.32 656.47,606.90 ZM 648.55 484.55 C644.15,488.94 635.00,486.90 635.00,481.53 C635.00,477.96 640.29,474.00 645.08,474.00 L 649.00 474.00 L 649.00 454.00 L 652.53 454.00 C654.47,454.00 657.62,454.65 659.53,455.45 C662.50,456.69 663.00,457.37 663.00,460.23 C663.00,462.06 662.30,464.56 661.44,465.78 C659.45,468.63 657.53,468.74 659.04,465.92 C660.82,462.59 659.52,461.00 655.03,461.00 L 651.00 461.00 L 651.00 471.55 C651.00,481.41 650.84,482.25 648.55,484.55 ZM 540.77 640.00 C536.36,642.69 532.76,642.51 529.11,639.44 C525.48,636.38 524.22,631.29 526.02,626.94 C527.73,622.81 530.66,621.00 535.63,621.00 C539.08,621.00 540.28,621.54 542.41,624.08 C545.18,627.36 545.78,630.00 543.77,630.00 C541.18,630.00 532.00,634.43 532.00,635.68 C532.00,637.91 537.16,637.16 541.21,634.35 C543.32,632.89 545.33,631.99 545.68,632.35 C546.89,633.56 544.04,638.00 540.77,640.00 ZM 562.03 632.30 C559.28,634.19 554.43,634.48 551.75,632.92 C549.12,631.39 547.00,626.58 547.00,622.14 C547.00,613.73 557.91,609.76 564.08,615.92 C567.17,619.01 567.93,622.00 565.62,622.00 C564.87,622.00 561.61,623.17 558.39,624.59 C552.92,627.01 552.66,627.28 554.46,628.59 C557.02,630.47 557.36,630.41 560.82,627.50 C564.00,624.82 567.02,624.21 566.97,626.25 C566.93,627.92 565.05,630.21 562.03,632.30 ZM 628.96 613.52 C617.74,619.32 605.41,606.04 611.99,595.24 C614.46,591.20 619.54,588.01 623.50,588.01 C627.22,588.01 633.00,591.41 633.00,593.60 C633.00,594.90 632.36,595.10 629.75,594.57 C620.51,592.69 620.20,592.71 617.56,595.35 C614.21,598.69 614.23,602.93 617.59,606.92 C621.00,610.97 624.79,611.00 629.35,607.00 C632.96,603.83 636.00,603.08 636.00,605.37 C636.00,607.43 632.18,611.85 628.96,613.52 ZM 761.79 590.25 L 762.07 600.00 L 753.56 600.00 C745.42,600.00 744.97,599.88 743.28,597.31 C742.13,595.55 741.39,592.08 741.15,587.31 L 740.78 580.00 L 746.91 580.00 L 747.21 587.15 C747.53,595.07 748.77,596.78 753.35,595.63 C755.92,594.98 756.00,594.75 756.00,587.41 L 756.00 579.87 L 758.75 580.18 L 761.50 580.50 ZM 482.84 673.50 C482.57,676.73 482.08,677.56 480.30,677.81 C478.31,678.10 478.08,677.63 477.80,672.88 C477.50,667.72 477.38,667.53 470.00,661.09 C465.88,657.49 462.50,654.09 462.50,653.52 C462.50,652.96 463.57,652.35 464.88,652.16 C466.62,651.92 468.59,653.12 472.25,656.66 L 477.25 661.50 L 476.64 653.78 C476.09,646.83 476.22,645.95 477.95,645.03 C479.00,644.46 480.07,644.00 480.31,644.00 C481.04,644.00 483.20,669.20 482.84,673.50 ZM 771.79 593.18 C771.63,597.12 771.05,600.45 770.50,600.59 C767.55,601.31 767.00,599.64 767.00,590.01 L 767.00 580.18 L 774.61 580.36 C781.58,580.54 782.42,580.79 784.61,583.33 C787.09,586.22 787.70,591.25 786.38,597.88 C785.89,600.30 785.23,601.00 783.42,601.00 C781.20,601.00 781.07,600.62 780.79,593.26 C780.48,584.91 779.80,584.08 774.46,585.42 C772.28,585.97 772.06,586.58 771.79,593.18 ZM 828.62 600.50 C822.40,611.51 820.87,613.55 818.64,613.82 C815.39,614.21 815.38,613.91 818.54,608.52 L 821.08 604.18 L 818.54 595.15 C815.62,584.74 815.46,583.00 817.43,583.00 C820.01,583.00 821.69,585.76 822.92,592.02 C823.59,595.42 824.44,597.90 824.80,597.53 C825.16,597.17 826.82,594.32 828.48,591.19 C830.59,587.22 832.18,585.40 833.75,585.18 C835.11,584.99 835.99,585.38 835.99,586.18 C835.98,586.91 832.66,593.35 828.62,600.50 ZM 597.37 620.93 C593.89,623.66 587.94,623.69 585.49,620.99 C583.07,618.32 584.19,617.50 590.25,617.50 C597.38,617.50 597.45,615.45 590.35,614.61 C587.21,614.24 584.04,613.45 583.32,612.85 C581.05,610.97 581.75,606.35 584.63,604.07 C589.07,600.59 597.00,601.66 597.00,605.75 C597.00,606.74 595.72,607.02 592.25,606.80 C588.56,606.57 587.50,606.84 587.50,608.00 C587.50,609.04 588.92,609.66 592.14,610.03 C594.69,610.33 597.50,611.17 598.39,611.91 C600.92,614.00 600.40,618.54 597.37,620.93 ZM 466.05 674.47 C464.43,675.31 462.71,676.00 462.24,676.00 C460.67,676.00 458.24,673.54 455.62,669.29 C454.20,666.98 452.19,664.64 451.17,664.09 C449.80,663.36 449.30,661.91 449.25,658.48 C449.16,652.93 451.29,651.40 454.03,655.04 C455.53,657.02 456.06,657.20 457.36,656.11 C458.21,655.41 459.38,655.12 459.96,655.47 C461.49,656.42 461.23,658.70 459.50,659.36 C457.36,660.18 457.64,662.47 460.41,666.86 C462.52,670.20 463.21,670.62 465.91,670.23 C470.03,669.62 470.12,672.37 466.05,674.47 ZM 811.79 600.87 C811.43,602.78 808.43,603.29 805.28,602.00 C802.57,600.88 801.54,597.25 802.41,591.82 C802.91,588.71 802.66,587.28 801.37,585.86 C799.76,584.08 799.79,583.85 801.84,581.68 C803.03,580.41 804.00,578.81 804.00,578.12 C804.00,575.89 808.47,577.31 808.81,579.65 C808.97,580.83 810.03,582.04 811.14,582.33 C813.86,583.04 813.19,586.40 810.24,586.82 C808.46,587.07 808.00,587.79 807.99,590.32 C807.98,592.07 807.71,594.49 807.38,595.70 C806.90,597.48 807.30,598.04 809.45,598.58 C811.17,599.01 811.99,599.81 811.79,600.87 ZM 582.50 623.50 C582.50,625.13 581.73,625.56 578.31,625.80 C573.71,626.14 573.26,625.69 571.01,618.50 C570.32,616.30 568.95,613.60 567.97,612.50 C566.60,610.96 566.35,609.59 566.86,606.51 C567.62,601.97 570.22,600.66 571.97,603.94 C572.62,605.16 574.07,606.00 575.54,606.00 C578.67,606.00 578.98,609.51 575.91,610.31 C573.67,610.90 573.75,611.86 576.60,618.82 C577.65,621.40 578.46,622.06 580.23,621.82 C581.94,621.58 582.50,621.99 582.50,623.50 ZM 445.29 685.90 C443.45,688.83 442.19,687.97 437.77,680.79 C427.76,664.55 427.64,664.27 429.88,663.07 C430.97,662.48 432.11,662.00 432.40,662.00 C432.69,662.00 435.92,667.04 439.58,673.21 C444.44,681.40 445.98,684.81 445.29,685.90 ZM 436.28 692.59 C435.30,693.33 434.27,693.93 434.00,693.92 C433.73,693.91 431.11,690.00 428.19,685.23 C423.28,677.22 423.01,676.47 424.63,675.28 C425.59,674.58 426.69,674.00 427.07,674.00 C427.44,674.00 430.07,677.88 432.90,682.62 C437.71,690.67 437.93,691.33 436.28,692.59 ZM 794.00 581.50 L 796.50 581.50 L 796.50 601.50 L 790.93 602.14 L 791.21 591.82 C791.50,581.55 791.51,581.50 794.00,581.50 ZM 412.45 696.55 C415.12,699.21 417.06,699.57 420.07,697.96 C424.26,695.72 421.02,687.00 416.00,687.00 C413.63,687.00 410.00,690.35 410.00,692.55 C410.00,693.40 411.10,695.20 412.45,696.55 ZM 645.56 603.78 C647.40,606.40 649.70,606.60 652.83,604.40 C655.96,602.22 655.45,597.40 651.81,594.70 C649.26,592.80 648.98,592.78 646.56,594.37 C643.58,596.32 643.15,600.34 645.56,603.78 ZM 453.98 681.52 C453.31,682.33 452.39,683.00 451.94,683.00 C451.50,683.00 448.78,679.11 445.91,674.35 C440.97,666.17 440.79,665.63 442.53,664.35 C443.55,663.61 444.67,663.00 445.01,663.00 C445.36,663.00 447.79,666.83 450.43,671.52 C454.34,678.49 454.99,680.31 453.98,681.52 ZM 391.56 710.78 C393.60,713.70 398.36,713.76 400.37,710.89 C402.83,707.37 399.62,702.00 395.05,702.00 C390.17,702.00 388.44,706.33 391.56,710.78 ZM 551.50 622.01 C551.89,622.63 552.94,622.83 553.85,622.47 C554.76,622.10 556.75,621.34 558.28,620.79 C560.51,619.98 560.83,619.50 559.91,618.39 C559.27,617.63 557.75,617.00 556.53,617.00 C553.90,617.00 550.50,620.39 551.50,622.01 ZM 530.00 629.14 C530.00,630.72 530.42,631.04 531.75,630.50 C532.71,630.11 534.76,629.34 536.30,628.78 C539.45,627.64 539.41,625.66 536.22,625.19 C533.16,624.73 530.00,626.74 530.00,629.14 ZM 425.56 670.90 C424.15,673.19 421.26,674.02 419.99,672.49 C418.55,670.75 419.32,668.20 421.55,667.34 C423.46,666.61 426.53,669.34 425.56,670.90 ZM 442.52 660.61 C440.04,662.42 438.08,662.38 437.36,660.49 C436.69,658.76 438.63,656.00 440.50,656.00 C441.19,656.00 442.36,656.72 443.09,657.61 C444.22,658.97 444.14,659.43 442.52,660.61 ZM 797.82 575.75 C798.09,577.67 797.68,578.00 795.00,578.00 C792.32,578.00 791.91,577.67 792.18,575.75 C792.41,574.10 793.17,573.50 795.00,573.50 C796.83,573.50 797.59,574.10 797.82,575.75 ZM 823.01 358.08 C823.36,357.85 823.57,357.57 823.59,357.32 C823.89,357.54 823.73,357.82 823.01,358.08 Z" fill="rgb(238,103,41)"/>
<path d="M 0.00 512.00 L 0.00 0.00 L 512.00 0.00 L 1024.00 0.00 L 1024.00 512.00 L 1024.00 1024.00 L 512.00 1024.00 L 0.00 1024.00 L 0.00 512.00 ZM 327.36 721.50 C350.02,696.36 377.16,671.47 399.50,655.34 C446.01,621.75 491.48,600.94 551.08,585.99 C622.27,568.12 696.48,561.07 813.92,561.02 C835.60,561.01 853.13,560.80 852.89,560.55 C852.21,559.87 802.17,552.45 775.50,549.07 C752.46,546.15 704.21,541.34 677.50,539.30 C648.33,537.08 550.98,536.75 528.00,538.79 C478.86,543.16 444.74,548.74 404.00,559.11 C360.34,570.21 326.97,581.45 282.58,600.00 C253.60,612.11 186.09,644.42 187.28,645.61 C187.50,645.83 191.92,645.57 197.09,645.03 C218.14,642.81 241.16,644.41 254.72,649.04 C280.74,657.92 296.41,683.14 305.02,730.00 C306.19,736.33 307.36,742.28 307.63,743.23 C308.00,744.53 309.39,743.29 313.23,738.23 C316.05,734.53 322.40,727.00 327.36,721.50 ZM 370.91 739.61 C371.82,738.52 371.11,737.12 367.53,732.92 C365.04,730.01 363.00,727.24 363.00,726.78 C363.00,726.32 366.29,727.76 370.32,729.97 C376.47,733.34 377.91,733.79 379.34,732.74 C380.93,731.58 380.88,730.99 378.51,724.03 C377.12,719.93 376.11,716.18 376.27,715.69 C376.43,715.20 378.57,717.54 381.01,720.90 C383.45,724.25 385.65,727.00 385.90,727.00 C386.14,727.00 387.14,726.28 388.11,725.40 C389.79,723.88 389.50,723.31 383.00,715.07 C374.05,703.72 373.80,703.52 371.14,705.73 L 369.02 707.50 L 371.90 717.25 C373.48,722.61 374.60,727.00 374.37,727.00 C374.14,727.00 369.86,724.94 364.84,722.42 C355.89,717.92 355.68,717.87 353.82,719.73 C351.97,721.59 352.07,721.81 359.63,731.31 C363.87,736.64 367.88,741.00 368.55,741.00 C369.21,741.00 370.27,740.38 370.91,739.61 ZM 398.32 717.88 C403.00,715.47 406.00,711.72 406.00,708.26 C406.00,697.71 395.70,693.10 388.40,700.40 C383.49,705.31 383.64,709.88 388.88,715.12 C392.97,719.20 394.73,719.72 398.32,717.88 ZM 416.06 705.43 C416.78,704.56 419.08,702.98 421.17,701.91 C428.90,697.97 429.76,692.06 423.55,685.48 C418.76,680.40 413.67,680.87 408.39,686.86 C407.11,688.31 406.05,689.00 406.03,688.38 C406.01,687.77 405.08,686.10 403.96,684.68 C401.85,682.00 399.00,682.01 399.00,684.70 C399.00,686.78 412.26,706.98 413.63,706.99 C414.25,707.00 415.34,706.29 416.06,705.43 ZM 436.28 692.59 C437.93,691.33 437.71,690.67 432.90,682.62 C430.07,677.88 427.44,674.00 427.07,674.00 C426.69,674.00 425.59,674.58 424.63,675.28 C423.01,676.47 423.28,677.22 428.19,685.23 C431.11,690.00 433.73,693.91 434.00,693.92 C434.27,693.93 435.30,693.33 436.28,692.59 ZM 445.29 685.90 C445.98,684.81 444.44,681.40 439.58,673.21 C435.92,667.04 432.69,662.00 432.40,662.00 C432.11,662.00 430.97,662.48 429.88,663.07 C427.64,664.27 427.76,664.55 437.77,680.79 C442.19,687.97 443.45,688.83 445.29,685.90 ZM 453.98 681.52 C454.99,680.31 454.34,678.49 450.43,671.52 C447.79,666.83 445.36,663.00 445.01,663.00 C444.67,663.00 443.55,663.61 442.53,664.35 C440.79,665.63 440.97,666.17 445.91,674.35 C448.78,679.11 451.50,683.00 451.94,683.00 C452.39,683.00 453.31,682.33 453.98,681.52 ZM 482.84 673.50 C483.20,669.20 481.04,644.00 480.31,644.00 C480.07,644.00 479.00,644.46 477.95,645.03 C476.22,645.95 476.09,646.83 476.64,653.78 L 477.25 661.50 L 472.25 656.66 C468.59,653.12 466.62,651.92 464.88,652.16 C463.57,652.35 462.50,652.96 462.50,653.52 C462.50,654.09 465.88,657.49 470.00,661.09 C477.38,667.53 477.50,667.72 477.80,672.88 C478.08,677.63 478.31,678.10 480.30,677.81 C482.08,677.56 482.57,676.73 482.84,673.50 ZM 466.05 674.47 C470.12,672.37 470.03,669.62 465.91,670.23 C463.21,670.62 462.52,670.20 460.41,666.86 C457.64,662.47 457.36,660.18 459.50,659.36 C461.23,658.70 461.49,656.42 459.96,655.47 C459.38,655.12 458.21,655.41 457.36,656.11 C456.06,657.20 455.53,657.02 454.03,655.04 C451.29,651.40 449.16,652.93 449.25,658.48 C449.30,661.91 449.80,663.36 451.17,664.09 C452.19,664.64 454.20,666.98 455.62,669.29 C458.24,673.54 460.67,676.00 462.24,676.00 C462.71,676.00 464.43,675.31 466.05,674.47 ZM 425.56 670.90 C426.53,669.34 423.46,666.61 421.55,667.34 C419.32,668.20 418.55,670.75 419.99,672.49 C421.26,674.02 424.15,673.19 425.56,670.90 ZM 442.52 660.61 C444.14,659.43 444.22,658.97 443.09,657.61 C442.36,656.72 441.19,656.00 440.50,656.00 C438.63,656.00 436.69,658.76 437.36,660.49 C438.08,662.38 440.04,662.42 442.52,660.61 ZM 502.42 656.39 C504.61,655.55 504.41,653.74 501.50,648.00 C497.66,640.42 498.47,640.04 504.88,646.38 C513.21,654.63 514.58,654.10 514.25,642.72 C514.11,637.92 514.24,634.00 514.54,634.00 C514.84,634.00 516.40,636.92 518.00,640.50 C520.21,645.43 521.41,647.00 522.96,647.00 C525.92,647.00 525.54,644.84 520.56,633.50 C517.42,626.35 515.62,623.42 514.25,623.20 C510.67,622.65 509.78,625.30 510.15,635.47 C510.34,640.71 510.35,645.00 510.16,645.00 C509.97,645.00 506.62,642.08 502.70,638.50 C495.88,632.27 492.01,630.55 490.47,633.05 C489.74,634.23 499.23,657.00 500.45,657.00 C500.66,657.00 501.55,656.73 502.42,656.39 ZM 540.77 640.00 C544.04,638.00 546.89,633.56 545.68,632.35 C545.33,631.99 543.32,632.89 541.21,634.35 C537.16,637.16 532.00,637.91 532.00,635.68 C532.00,634.43 541.18,630.00 543.77,630.00 C545.78,630.00 545.18,627.36 542.41,624.08 C540.28,621.54 539.08,621.00 535.63,621.00 C530.66,621.00 527.73,622.81 526.02,626.94 C524.22,631.29 525.48,636.38 529.11,639.44 C532.76,642.51 536.36,642.69 540.77,640.00 ZM 562.03 632.30 C565.05,630.21 566.93,627.92 566.97,626.25 C567.02,624.21 564.00,624.82 560.82,627.50 C557.36,630.41 557.02,630.47 554.46,628.59 C552.66,627.28 552.92,627.01 558.39,624.59 C561.61,623.17 564.87,622.00 565.62,622.00 C567.93,622.00 567.17,619.01 564.08,615.92 C557.91,609.76 547.00,613.73 547.00,622.14 C547.00,626.58 549.12,631.39 551.75,632.92 C554.43,634.48 559.28,634.19 562.03,632.30 ZM 582.50 623.50 C582.50,621.99 581.94,621.58 580.23,621.82 C578.46,622.06 577.65,621.40 576.60,618.82 C573.75,611.86 573.67,610.90 575.91,610.31 C578.98,609.51 578.67,606.00 575.54,606.00 C574.07,606.00 572.62,605.16 571.97,603.94 C570.22,600.66 567.62,601.97 566.86,606.51 C566.35,609.59 566.60,610.96 567.97,612.50 C568.95,613.60 570.32,616.30 571.01,618.50 C573.26,625.69 573.71,626.14 578.31,625.80 C581.73,625.56 582.50,625.13 582.50,623.50 ZM 597.37 620.93 C600.40,618.54 600.92,614.00 598.39,611.91 C597.50,611.17 594.69,610.33 592.14,610.03 C588.92,609.66 587.50,609.04 587.50,608.00 C587.50,606.84 588.56,606.57 592.25,606.80 C595.72,607.02 597.00,606.74 597.00,605.75 C597.00,601.66 589.07,600.59 584.63,604.07 C581.75,606.35 581.05,610.97 583.32,612.85 C584.04,613.45 587.21,614.24 590.35,614.61 C597.45,615.45 597.38,617.50 590.25,617.50 C584.19,617.50 583.07,618.32 585.49,620.99 C587.94,623.69 593.89,623.66 597.37,620.93 ZM 628.96 613.52 C632.18,611.85 636.00,607.43 636.00,605.37 C636.00,603.08 632.96,603.83 629.35,607.00 C624.79,611.00 621.00,610.97 617.59,606.92 C614.23,602.93 614.21,598.69 617.56,595.35 C620.20,592.71 620.51,592.69 629.75,594.57 C632.36,595.10 633.00,594.90 633.00,593.60 C633.00,591.41 627.22,588.01 623.50,588.01 C619.54,588.01 614.46,591.20 611.99,595.24 C605.41,606.04 617.74,619.32 628.96,613.52 ZM 828.62 600.50 C832.66,593.35 835.98,586.91 835.99,586.18 C835.99,585.38 835.11,584.99 833.75,585.18 C832.18,585.40 830.59,587.22 828.48,591.19 C826.82,594.32 825.16,597.17 824.80,597.53 C824.44,597.90 823.59,595.42 822.92,592.02 C821.69,585.76 820.01,583.00 817.43,583.00 C815.46,583.00 815.62,584.74 818.54,595.15 L 821.08 604.18 L 818.54 608.52 C815.38,613.91 815.39,614.21 818.64,613.82 C820.87,613.55 822.40,611.51 828.62,600.50 ZM 656.47 606.90 C659.40,604.32 660.00,603.12 660.00,599.80 C660.00,596.56 659.33,595.13 656.47,592.27 C653.26,589.06 652.57,588.79 648.72,589.31 C640.79,590.37 636.84,597.92 640.50,605.00 C643.61,611.02 650.79,611.88 656.47,606.90 ZM 669.35 598.61 C668.77,591.72 668.87,591.14 670.90,590.05 C672.10,589.41 673.96,589.17 675.04,589.51 C677.13,590.18 677.69,591.66 678.81,599.51 C679.41,603.77 679.87,604.55 681.91,604.84 C684.30,605.18 684.31,605.16 683.68,597.76 C682.98,589.48 683.67,588.00 688.22,588.00 C691.43,588.00 693.00,590.79 693.00,596.48 C693.00,601.41 693.91,603.00 696.74,603.00 C699.18,603.00 699.25,602.82 698.64,598.36 C698.29,595.81 698.00,592.69 698.00,591.44 C698.00,590.18 696.84,587.77 695.41,586.08 C692.25,582.32 687.60,581.95 683.56,585.13 C681.55,586.71 680.57,586.97 679.73,586.13 C678.32,584.72 671.34,584.64 670.48,586.03 C670.10,586.64 668.39,586.79 666.27,586.39 L 662.70 585.72 L 663.40 593.61 C664.41,604.84 664.80,606.00 667.60,606.00 C669.94,606.00 669.97,605.90 669.35,598.61 ZM 811.79 600.87 C811.99,599.81 811.17,599.01 809.45,598.58 C807.30,598.04 806.90,597.48 807.38,595.70 C807.71,594.49 807.98,592.07 807.99,590.32 C808.00,587.79 808.46,587.07 810.24,586.82 C813.19,586.40 813.86,583.04 811.14,582.33 C810.03,582.04 808.97,580.83 808.81,579.65 C808.47,577.31 804.00,575.89 804.00,578.12 C804.00,578.81 803.03,580.41 801.84,581.68 C799.79,583.85 799.76,584.08 801.37,585.86 C802.66,587.28 802.91,588.71 802.41,591.82 C801.54,597.25 802.57,600.88 805.28,602.00 C808.43,603.29 811.43,602.78 811.79,600.87 ZM 708.68 594.25 L 708.50 586.50 L 712.50 586.50 L 716.50 586.50 L 717.39 593.75 C718.21,600.41 718.47,601.00 720.60,601.00 C722.80,601.00 722.93,600.61 723.21,593.25 C723.50,585.54 723.51,585.50 726.37,585.17 C730.46,584.71 731.43,586.20 732.00,593.80 C732.45,599.81 732.73,600.53 734.75,600.82 C736.90,601.13 737.00,600.83 737.00,594.02 C737.00,586.58 735.36,581.73 732.46,580.62 C729.44,579.46 726.28,579.99 723.59,582.11 C721.07,584.09 720.79,584.12 719.07,582.56 C717.53,581.17 715.97,581.01 709.48,581.60 L 701.74 582.30 L 702.36 588.90 C702.71,592.53 702.99,596.96 702.99,598.75 C703.00,601.68 703.29,602.00 705.93,602.00 L 708.87 602.00 L 708.68 594.25 ZM 796.50 591.50 L 796.50 581.50 L 794.00 581.50 C791.51,581.50 791.50,581.55 791.21,591.82 L 790.93 602.14 L 793.71 601.82 L 796.50 601.50 L 796.50 591.50 ZM 771.79 593.18 C772.06,586.58 772.28,585.97 774.46,585.42 C779.80,584.08 780.48,584.91 780.79,593.26 C781.07,600.62 781.20,601.00 783.42,601.00 C785.23,601.00 785.89,600.30 786.38,597.88 C787.70,591.25 787.09,586.22 784.61,583.33 C782.42,580.79 781.58,580.54 774.61,580.36 L 767.00 580.18 L 767.00 590.01 C767.00,599.64 767.55,601.31 770.50,600.59 C771.05,600.45 771.63,597.12 771.79,593.18 ZM 761.79 590.25 L 761.50 580.50 L 758.75 580.18 L 756.00 579.87 L 756.00 587.41 C756.00,594.75 755.92,594.98 753.35,595.63 C748.77,596.78 747.53,595.07 747.21,587.15 L 746.91 580.00 L 743.85 580.00 L 740.78 580.00 L 741.15 587.31 C741.39,592.08 742.13,595.55 743.28,597.31 C744.97,599.88 745.42,600.00 753.56,600.00 L 762.07 600.00 L 761.79 590.25 ZM 797.82 575.75 C797.59,574.10 796.83,573.50 795.00,573.50 C793.17,573.50 792.41,574.10 792.18,575.75 C791.91,577.67 792.32,578.00 795.00,578.00 C797.68,578.00 798.09,577.67 797.82,575.75 ZM 371.83 529.13 C391.39,504.77 396.85,495.69 401.06,480.52 C406.24,461.88 400.66,442.07 385.83,426.46 C377.93,418.14 369.51,413.28 358.01,410.39 C348.05,407.89 332.90,408.88 322.27,412.72 C312.30,416.33 307.40,419.53 299.41,427.66 C279.04,448.39 277.67,478.00 295.85,504.78 C302.56,514.66 338.99,556.68 342.86,559.01 C345.01,560.30 355.44,549.55 371.83,529.13 ZM 512.50 517.65 C515.25,516.49 520.31,513.41 523.75,510.81 L 530.00 506.08 L 530.00 512.04 L 530.00 518.00 L 538.50 518.00 L 547.00 518.00 L 547.00 473.50 L 547.00 429.00 L 538.50 429.00 L 530.00 429.00 L 530.00 434.46 L 530.00 439.92 L 523.58 435.06 C514.15,427.92 507.53,425.71 496.99,426.20 C489.56,426.54 487.48,427.08 480.69,430.44 C467.25,437.08 459.19,448.26 456.42,464.11 C453.89,478.64 456.98,493.00 464.92,503.51 C475.95,518.12 496.73,524.30 512.50,517.65 ZM 238.14 518.02 C245.89,515.61 255.71,509.33 260.54,503.69 C272.10,490.18 275.37,467.94 268.09,452.38 C260.42,435.99 243.91,426.00 224.50,426.00 C201.34,426.00 183.02,439.47 177.53,460.53 C171.07,485.36 185.41,510.63 210.50,518.60 C216.84,520.61 230.76,520.32 238.14,518.02 ZM 587.00 451.50 L 587.00 383.00 L 578.00 383.00 L 569.00 383.00 L 569.00 451.50 L 569.00 520.00 L 578.00 520.00 L 587.00 520.00 L 587.00 451.50 ZM 662.05 516.88 C665.04,515.60 669.84,512.62 672.74,510.26 L 678.00 505.98 L 678.00 511.99 L 678.00 518.00 L 687.50 518.00 L 697.00 518.00 L 697.00 472.50 L 697.00 427.00 L 687.50 427.00 L 678.00 427.00 L 678.00 433.00 C678.00,436.30 677.84,439.00 677.64,439.00 C677.44,439.00 675.65,437.46 673.65,435.58 C665.51,427.90 652.31,424.02 640.56,425.85 C617.29,429.47 601.60,450.40 603.34,475.50 C604.86,497.34 616.89,513.07 636.25,518.52 C643.61,520.59 655.13,519.86 662.05,516.88 ZM 441.00 449.50 L 441.00 381.00 L 432.00 381.00 L 423.00 381.00 L 423.00 449.50 L 423.00 518.00 L 432.00 518.00 L 441.00 518.00 L 441.00 449.50 ZM 735.09 476.75 C735.14,454.06 735.33,423.24 735.51,408.25 L 735.84 381.00 L 726.42 381.00 L 717.00 381.00 L 717.00 449.50 L 717.00 518.00 L 726.00 518.00 L 735.00 518.00 L 735.09 476.75 ZM 812.12 515.44 C814.90,514.03 819.10,511.10 821.45,508.94 C823.80,506.77 826.01,505.00 826.36,505.00 C826.71,505.00 827.00,507.70 827.00,511.00 L 827.00 517.00 L 835.50 517.00 L 844.00 517.00 L 844.00 472.50 L 844.00 428.00 L 835.50 428.00 L 827.00 428.00 L 827.00 433.50 C827.00,436.52 826.83,439.00 826.63,439.00 C826.42,439.00 824.51,437.40 822.38,435.44 C820.24,433.48 815.28,430.28 811.36,428.34 C804.46,424.92 803.88,424.81 794.86,425.15 C786.80,425.45 784.55,425.95 778.65,428.74 C765.01,435.20 755.01,449.21 752.91,464.78 C749.77,488.09 760.52,508.52 779.91,516.11 C783.33,517.45 787.38,517.92 795.78,517.95 C805.96,518.00 807.56,517.75 812.12,515.44 ZM 908.00 492.10 C908.00,491.61 911.94,485.22 916.75,477.91 C925.35,464.84 925.50,464.51 925.50,458.48 C925.50,450.99 922.13,445.13 916.04,442.02 C911.66,439.79 903.86,439.34 899.32,441.07 C892.62,443.60 888.00,451.01 888.00,459.22 C888.00,464.20 888.51,465.27 896.50,477.24 C901.17,484.24 905.00,490.65 905.00,491.48 C905.00,492.32 905.67,493.00 906.50,493.00 C907.33,493.00 908.00,492.60 908.00,492.10 ZM 876.35 465.25 C875.47,458.51 874.07,456.43 874.03,461.82 C874.00,465.67 875.32,470.00 876.52,470.00 C876.76,470.00 876.68,467.86 876.35,465.25 ZM 878.61 445.25 C879.65,442.64 880.65,440.17 880.83,439.75 C881.02,439.34 880.73,439.00 880.19,439.00 C879.36,439.00 878.42,440.87 875.28,448.75 C875.01,449.44 875.22,450.00 875.76,450.00 C876.29,450.00 877.58,447.86 878.61,445.25 ZM 409.76 366.25 C423.40,346.84 443.45,332.38 463.77,327.27 C469.19,325.91 475.38,325.58 495.50,325.57 C521.65,325.55 531.22,326.31 576.50,332.02 C600.02,334.98 626.74,337.39 649.00,338.55 C668.57,339.57 697.63,336.42 719.17,330.95 C732.02,327.68 731.00,326.51 731.00,344.58 C731.00,353.15 731.35,360.02 731.78,359.83 C732.22,359.65 738.99,355.76 746.83,351.18 C754.68,346.61 761.41,343.01 761.80,343.18 C763.31,343.87 778.84,360.85 783.34,366.75 C785.97,370.19 788.55,373.00 789.09,373.00 C790.97,373.00 791.34,369.58 790.17,362.79 C786.96,344.07 774.48,332.11 745.90,320.35 L 734.50 315.67 L 699.50 314.91 C636.76,313.55 605.43,310.35 515.50,296.09 C465.45,288.15 461.65,287.72 447.00,288.34 C421.56,289.41 405.50,295.51 391.37,309.47 C386.90,313.89 380.71,321.39 377.62,326.15 C368.60,340.05 370.05,341.33 383.53,331.39 C395.09,322.86 406.96,316.94 420.25,313.07 C440.88,307.06 445.02,308.02 434.24,316.32 C425.16,323.30 410.56,339.17 407.55,345.30 C404.07,352.43 402.03,360.26 402.01,366.58 C401.99,375.22 403.49,375.16 409.76,366.25 ZM 282.83 366.92 C295.96,364.85 299.00,363.82 299.00,361.43 C299.00,360.15 297.48,360.05 288.25,360.72 C282.34,361.15 266.02,361.46 252.00,361.42 C231.65,361.36 223.10,360.89 209.65,359.11 C200.38,357.88 192.55,357.12 192.25,357.41 C188.79,360.88 214.50,367.20 239.00,368.91 C254.47,369.99 266.84,369.43 282.83,366.92 ZM 821.87 358.39 C825.55,357.63 823.39,356.55 818.85,356.88 C815.67,357.10 814.95,356.88 815.58,355.83 C816.02,355.10 821.04,347.53 826.73,339.02 C838.06,322.07 840.62,315.91 839.67,307.90 C837.55,289.95 817.16,278.63 801.24,286.57 C791.57,291.39 785.54,301.01 785.62,311.50 C785.68,318.91 787.19,322.01 799.48,340.00 C804.55,347.42 809.47,354.98 810.40,356.79 C812.19,360.26 812.58,360.32 821.87,358.39 ZM 904.52 359.04 C904.20,358.51 902.26,357.80 900.21,357.45 C898.17,357.11 895.71,356.61 894.75,356.35 C893.79,356.08 893.00,356.27 893.00,356.77 C893.00,357.26 895.14,358.13 897.75,358.69 C904.25,360.10 905.21,360.15 904.52,359.04 ZM 843.50 355.83 C844.13,355.24 842.30,355.00 838.58,355.20 C835.32,355.36 832.49,356.00 832.29,356.61 C831.85,357.96 841.98,357.25 843.50,355.83 ZM 885.00 356.00 C885.00,355.42 882.18,355.06 878.25,355.14 C872.26,355.27 871.95,355.36 875.50,356.00 C881.65,357.10 885.00,357.10 885.00,356.00 ZM 293.98 343.43 C299.33,342.22 303.76,341.90 309.53,342.31 C317.02,342.83 320.23,343.64 328.73,347.10 C331.62,348.29 332.24,348.21 334.73,346.36 C340.91,341.76 337.63,332.65 326.62,323.89 C322.71,320.77 320.92,320.00 317.62,320.02 C313.19,320.05 307.34,322.33 301.41,326.37 C296.23,329.89 282.53,342.44 280.01,345.98 L 277.92 348.92 L 282.21 347.03 C284.57,345.99 289.87,344.37 293.98,343.43 ZM 270.75 327.64 C282.84,315.04 282.73,313.15 269.71,310.95 C262.18,309.68 217.67,309.99 216.34,311.33 C214.85,312.82 218.28,314.38 228.96,317.08 C244.07,320.88 250.05,323.81 256.30,330.46 C259.16,333.50 261.78,335.99 262.11,335.99 C262.45,336.00 266.34,332.24 270.75,327.64 ZM 366.50 313.07 C380.36,306.22 386.30,301.90 384.44,300.04 C383.85,299.45 378.59,300.61 370.50,303.09 C361.49,305.86 356.43,306.92 354.00,306.56 C349.71,305.91 293.41,290.43 290.17,289.00 C288.89,288.43 288.00,287.50 288.19,286.92 C288.58,285.76 296.45,282.24 313.85,275.44 C330.08,269.09 331.36,269.55 323.00,278.69 C315.34,287.07 315.63,287.36 330.75,286.58 C337.76,286.21 349.76,285.47 357.40,284.93 L 371.31 283.96 L 411.24 265.94 L 451.17 247.93 L 459.33 249.03 C473.75,250.99 472.71,252.82 452.87,260.40 C403.21,279.38 398.58,281.51 403.25,283.25 C404.54,283.73 418.14,281.57 452.00,275.51 C487.24,269.21 543.69,262.00 557.83,262.00 L 563.37 262.00 L 575.56 274.50 C582.26,281.38 588.25,287.00 588.87,287.00 C590.60,287.00 590.23,284.04 587.50,276.00 C586.12,271.96 585.00,268.28 585.00,267.82 C585.00,266.27 587.92,267.00 599.22,271.37 C614.91,277.43 624.41,282.42 639.32,292.41 C646.37,297.13 652.72,301.00 653.44,301.00 C654.15,301.00 655.92,299.21 657.37,297.02 C662.44,289.35 666.10,288.54 673.37,293.47 C678.10,296.68 679.00,296.65 678.99,293.25 C678.98,288.52 676.99,283.02 674.11,279.80 C670.05,275.25 665.87,276.32 657.60,284.05 L 651.23 290.01 L 644.87 285.32 C608.16,258.27 575.05,245.59 529.14,241.03 C512.49,239.37 439.95,239.71 424.49,241.52 C409.20,243.30 384.59,247.21 370.50,250.10 C342.92,255.74 311.88,265.62 279.42,279.08 C265.66,284.79 265.04,284.94 251.42,286.04 C234.61,287.38 221.12,289.97 209.31,294.09 C194.08,299.42 181.96,307.36 184.78,310.18 C185.64,311.04 186.89,311.05 189.72,310.22 C196.19,308.31 217.15,305.05 229.60,304.02 C269.65,300.70 319.88,306.73 345.00,317.86 C347.48,318.96 350.17,319.89 350.99,319.93 C351.80,319.97 358.78,316.88 366.50,313.07 ZM 277.65 647.53 C276.89,645.54 297.65,634.25 299.21,635.81 C301.25,637.85 299.00,639.98 290.06,644.47 C280.34,649.35 278.52,649.80 277.65,647.53 ZM 321.18 626.25 C321.52,624.40 337.07,616.34 342.31,615.29 C344.74,614.80 345.15,615.01 344.85,616.56 C344.60,617.82 341.11,619.94 333.99,623.16 C322.37,628.41 320.70,628.81 321.18,626.25 ZM 366.45 606.91 C365.40,605.22 366.89,604.28 377.39,599.99 C388.21,595.58 389.53,595.32 390.36,597.48 C391.03,599.24 390.30,599.67 378.56,604.40 C368.91,608.28 367.48,608.58 366.45,606.91 ZM 412.62 588.46 C412.30,587.62 412.59,586.72 413.27,586.47 C426.05,581.71 435.48,579.15 436.16,580.25 C437.36,582.20 435.22,583.49 425.23,586.87 C414.65,590.44 413.44,590.59 412.62,588.46 ZM 459.45 573.91 C459.08,573.31 459.22,572.38 459.76,571.84 C461.24,570.36 481.01,564.79 482.61,565.40 C485.48,566.50 483.98,568.93 479.75,570.03 C477.41,570.64 472.53,572.01 468.89,573.07 C461.24,575.31 460.36,575.38 459.45,573.91 ZM 507.45 561.91 C506.26,560.00 508.27,559.19 519.50,557.08 C532.82,554.56 532.00,554.57 532.00,556.93 C532.00,559.19 531.39,559.41 519.50,561.45 C508.77,563.29 508.31,563.31 507.45,561.91 ZM 556.00 554.16 C556.00,552.45 557.09,552.19 566.75,551.56 C578.28,550.82 581.28,551.31 580.79,553.88 C580.52,555.25 578.60,555.54 568.24,555.78 C556.78,556.04 556.00,555.94 556.00,554.16 ZM 391.56 710.78 C388.44,706.33 390.17,702.00 395.05,702.00 C399.62,702.00 402.83,707.37 400.37,710.89 C398.36,713.76 393.60,713.70 391.56,710.78 ZM 412.45 696.55 C411.10,695.20 410.00,693.40 410.00,692.55 C410.00,690.35 413.63,687.00 416.00,687.00 C421.02,687.00 424.26,695.72 420.07,697.96 C417.06,699.57 415.12,699.21 412.45,696.55 ZM 530.00 629.14 C530.00,626.74 533.16,624.73 536.22,625.19 C539.41,625.66 539.45,627.64 536.30,628.78 C534.76,629.34 532.71,630.11 531.75,630.50 C530.42,631.04 530.00,630.72 530.00,629.14 ZM 551.50 622.01 C550.50,620.39 553.90,617.00 556.53,617.00 C557.75,617.00 559.27,617.63 559.91,618.39 C560.83,619.50 560.51,619.98 558.28,620.79 C556.75,621.34 554.76,622.10 553.85,622.47 C552.94,622.83 551.89,622.63 551.50,622.01 ZM 645.56 603.78 C643.15,600.34 643.58,596.32 646.56,594.37 C648.98,592.78 649.26,592.80 651.81,594.70 C655.45,597.40 655.96,602.22 652.83,604.40 C649.70,606.60 647.40,606.40 645.56,603.78 ZM 333.50 504.11 C325.20,501.70 321.47,499.56 316.32,494.26 C311.04,488.83 308.51,484.13 306.39,475.86 C302.70,461.49 310.44,443.10 323.36,435.53 C329.37,432.01 340.22,429.68 347.57,430.34 C360.84,431.54 371.09,437.99 376.70,448.68 C383.31,461.27 383.58,472.40 377.55,484.59 C372.14,495.54 364.41,501.51 351.78,504.49 C343.89,506.35 340.99,506.29 333.50,504.11 ZM 353.86 491.07 C363.02,486.40 368.51,476.40 367.83,465.65 C367.49,460.27 366.81,458.28 363.71,453.62 C350.40,433.57 319.09,443.65 319.03,468.00 C319.01,477.69 324.34,486.11 333.50,490.84 C338.88,493.62 348.64,493.73 353.86,491.07 ZM 493.32 502.62 C491.03,501.87 487.59,500.29 485.68,499.11 C472.08,490.70 468.77,466.63 479.32,452.80 C484.14,446.48 493.31,442.00 501.43,442.00 C512.33,442.00 521.88,448.07 527.23,458.38 C530.32,464.36 530.91,478.03 528.37,485.09 C526.09,491.43 520.18,498.36 514.63,501.19 C509.48,503.82 499.12,504.52 493.32,502.62 ZM 214.70 502.62 C204.90,498.95 198.46,491.80 195.34,481.07 C192.03,469.74 196.70,455.45 206.13,447.99 C212.01,443.34 216.21,442.01 225.05,442.01 C236.31,442.00 246.20,448.76 251.24,459.91 C254.05,466.12 254.04,479.85 251.23,486.21 C248.65,492.05 242.71,498.60 237.65,501.18 C232.44,503.83 220.03,504.62 214.70,502.62 ZM 642.99 502.07 C634.87,499.59 627.16,492.01 624.44,483.81 C622.27,477.28 622.81,463.11 625.43,458.00 C628.42,452.14 634.98,446.15 640.76,443.99 C648.53,441.08 654.46,441.39 661.85,445.09 C672.24,450.28 677.27,459.20 677.35,472.60 C677.40,479.82 677.03,481.49 674.16,487.34 C670.50,494.77 665.78,499.21 659.13,501.47 C654.40,503.08 647.20,503.35 642.99,502.07 ZM 648.55 484.55 C650.84,482.25 651.00,481.41 651.00,471.55 L 651.00 461.00 L 655.03 461.00 C659.52,461.00 660.82,462.59 659.04,465.92 C657.53,468.74 659.45,468.63 661.44,465.78 C662.30,464.56 663.00,462.06 663.00,460.23 C663.00,457.37 662.50,456.69 659.53,455.45 C657.62,454.65 654.47,454.00 652.53,454.00 L 649.00 454.00 L 649.00 464.00 L 649.00 474.00 L 645.08 474.00 C640.29,474.00 635.00,477.96 635.00,481.53 C635.00,486.90 644.15,488.94 648.55,484.55 ZM 789.70 501.62 C776.11,496.55 769.17,484.79 770.21,468.58 C770.95,457.08 776.08,449.19 786.38,443.72 C789.61,442.00 792.22,441.53 798.50,441.52 C805.62,441.50 807.11,441.84 812.00,444.60 C822.61,450.59 827.63,460.87 826.78,474.92 C826.07,486.72 820.57,495.54 810.74,500.64 C806.39,502.90 794.60,503.45 789.70,501.62 ZM 899.92 465.08 C894.75,459.91 896.74,452.01 903.97,449.01 C906.41,448.00 907.60,448.01 910.12,449.05 C913.35,450.39 916.99,455.23 917.00,458.20 C917.01,466.69 905.98,471.14 899.92,465.08 ZM 805.30 322.04 C797.22,317.11 796.86,305.18 804.61,299.09 C807.88,296.52 815.68,296.26 820.14,298.57 C824.08,300.61 827.43,307.88 826.57,312.50 C824.79,321.95 813.47,327.02 805.30,322.04 Z" fill="rgb(254,254,254)"/>
</g>
</svg>