<svg width="701" height="253" viewBox="0 0 701 253" fill="none" xmlns="http://www.w3.org/2000/svg">
<path d="M342.093 14.0558C341.708 13.3463 341.114 12.773 340.39 12.4145C339.667 12.0559 338.851 11.9295 338.053 12.0527C337.109 11.3313 335.949 10.9491 334.761 10.9674C333.573 10.9858 332.425 11.4038 331.504 12.154C330.8 11.7423 330.002 11.5169 329.187 11.4991C328.372 11.4814 327.566 11.6719 326.845 12.0527C326.13 12.4532 325.528 13.027 325.093 13.7211C324.659 14.4153 324.406 15.2076 324.357 16.0252C323.537 15.9069 322.7 16.0431 321.96 16.4154C321.219 16.7877 320.611 17.3782 320.216 18.1071C319.849 18.8516 319.715 19.6899 319.834 20.5115C319.953 21.3332 320.317 22.0996 320.88 22.7099C319.988 23.0071 319.237 23.6223 318.77 24.438C318.303 25.2538 318.152 26.2129 318.347 27.1326C318.542 28.0523 319.068 28.8681 319.826 29.4243C320.584 29.9806 321.52 30.2384 322.456 30.1485L341.362 18.5235C341.93 17.9453 342.305 17.2056 342.436 16.4057C342.567 15.6058 342.447 14.785 342.093 14.0558Z" fill="#263238"/>
<path d="M321.904 30.6781C322.232 26.63 324.073 22.8539 327.059 20.1013C330.045 17.3486 333.958 15.8213 338.019 15.8232H338.852C347.855 16.3747 350.669 24.7249 349.858 33.7503L348.958 67.3424L334.621 79.7214L330.401 70.5159L329.388 61.513C329.388 61.513 320.745 60.1288 320.666 51.3847C320.633 47.1759 321.274 38.5106 321.904 30.6781Z" fill="#FFBF9D"/>
<path d="M329.32 61.4453C333.341 61.4554 337.279 60.3067 340.664 58.1367C340.664 58.1367 338.289 64.6301 329.658 63.8198L329.32 61.4453Z" fill="#FF9A6C"/>
<path d="M324.38 38.747C324.377 39.0707 324.499 39.3831 324.722 39.6182C324.944 39.8533 325.249 39.9929 325.573 40.0074C325.731 40.0197 325.89 40 326.04 39.9496C326.19 39.8992 326.328 39.8192 326.447 39.7142C326.566 39.6092 326.662 39.4814 326.73 39.3385C326.799 39.1955 326.837 39.0403 326.844 38.8821C326.854 38.5586 326.735 38.2446 326.513 38.0085C326.292 37.7725 325.986 37.6334 325.663 37.6216C325.504 37.6078 325.344 37.6263 325.193 37.6759C325.041 37.7256 324.901 37.8054 324.781 37.9105C324.661 38.0157 324.564 38.144 324.495 38.2877C324.426 38.4315 324.387 38.5877 324.38 38.747Z" fill="#263238"/>
<path d="M323.648 35.3812C323.806 35.55 324.774 34.8523 326.068 34.8636C327.362 34.8748 328.375 35.5388 328.521 35.3812C328.667 35.2237 328.431 35.0098 328.015 34.706C327.442 34.3013 326.758 34.085 326.056 34.0871C325.362 34.0805 324.683 34.2975 324.121 34.706C323.716 35.0211 323.581 35.3137 323.648 35.3812Z" fill="#263238"/>
<path d="M335.78 39.3555C335.771 39.6789 335.89 39.9929 336.111 40.229C336.332 40.4651 336.638 40.6041 336.961 40.6159C337.12 40.6281 337.279 40.6085 337.43 40.5583C337.581 40.508 337.72 40.4281 337.84 40.3233C337.959 40.2184 338.057 40.0907 338.126 39.9477C338.196 39.8047 338.236 39.6493 338.244 39.4905C338.248 39.1668 338.125 38.8545 337.902 38.6193C337.68 38.3842 337.375 38.2447 337.051 38.2301C336.893 38.2179 336.735 38.2375 336.584 38.2879C336.434 38.3383 336.296 38.4183 336.177 38.5233C336.059 38.6283 335.962 38.7561 335.894 38.899C335.826 39.042 335.787 39.1972 335.78 39.3555Z" fill="#263238"/>
<path d="M336.365 35.2468C336.523 35.4044 337.491 34.7179 338.785 34.7179C340.079 34.7179 341.092 35.4044 341.238 35.2356C341.384 35.0668 341.148 34.8755 340.732 34.5604C340.159 34.1557 339.475 33.9394 338.773 33.9414C338.084 33.9463 337.412 34.1623 336.849 34.5604C336.433 34.8755 336.298 35.1681 336.365 35.2468Z" fill="#263238"/>
<path d="M331.954 45.1381C331.258 44.9107 330.535 44.7783 329.804 44.7442C329.466 44.7442 329.14 44.6317 329.084 44.3954C329.059 44.0467 329.138 43.6985 329.309 43.3938L330.322 40.7942C331.246 38.6052 331.998 36.3476 332.572 34.042C331.464 36.1633 330.523 38.3683 329.759 40.6366C329.41 41.5482 329.095 42.4147 328.78 43.2475C328.57 43.6606 328.507 44.1327 328.6 44.5866C328.649 44.7081 328.726 44.8168 328.823 44.9046C328.921 44.9923 329.037 45.0567 329.163 45.0931C329.35 45.1439 329.543 45.1704 329.737 45.1719C330.474 45.2596 331.219 45.2482 331.954 45.1381Z" fill="#263238"/>
<path d="M335.904 46.0732C335.69 46.0732 335.678 47.5137 334.441 48.5378C333.203 49.5619 331.661 49.4043 331.65 49.6069C331.638 49.8095 331.999 49.8882 332.64 49.9107C333.488 49.9252 334.314 49.6381 334.97 49.1005C335.592 48.5815 335.994 47.8454 336.095 47.0411C336.129 46.4334 335.971 46.0732 335.904 46.0732Z" fill="#263238"/>
<path d="M336.365 31.4208C336.523 31.7697 337.67 31.4208 339.055 31.4883C340.439 31.5559 341.609 31.8147 341.755 31.4883C341.812 31.3308 341.587 31.0157 341.091 30.7118C340.463 30.3548 339.754 30.1649 339.032 30.1604C338.318 30.1424 337.614 30.3215 336.995 30.6781C336.511 30.9482 336.297 31.2633 336.365 31.4208Z" fill="#263238"/>
<path d="M323.963 31.7248C324.177 32.0399 325.089 31.8035 326.214 31.8936C327.34 31.9836 328.217 32.2649 328.465 31.9723C328.712 31.6797 328.465 31.5109 328.06 31.1846C327.548 30.7892 326.927 30.5612 326.282 30.5319C325.638 30.4871 324.997 30.6445 324.447 30.982C324.031 31.2634 323.873 31.5672 323.963 31.7248Z" fill="#263238"/>
<path d="M322.748 26.6946C322.748 26.6946 324.999 21.2591 327.666 19.9424C330.828 18.4232 332.167 21.9118 335.195 21.0678C338.222 20.2237 341.238 18.7608 344.31 21.0678C347.686 23.6449 346.088 25.4454 346.279 29.3054C347.078 44.9592 349.903 49.3932 350.781 42.022C350.871 41.2118 353.099 40.5816 353.448 37.1717C353.887 32.749 354.078 27.3698 353.099 24.23C352.289 21.5742 350.792 19.7286 348.102 17.7254C343.871 14.5182 338.03 14.4394 334.069 14.822C330.108 15.2046 322.399 19.8749 322.748 26.6946Z" fill="#263238"/>
<path d="M349.093 41.8866C349.104 41.569 349.179 41.257 349.315 40.9696C349.45 40.6822 349.643 40.4254 349.881 40.2148C350.119 40.0042 350.397 39.8443 350.699 39.7448C351.001 39.6452 351.32 39.6082 351.636 39.6359C353.245 39.7934 355.012 40.7612 354.922 44.0811C354.708 50.023 348.823 48.5825 348.812 48.4137C348.8 48.2449 348.98 44.3736 349.093 41.8866Z" fill="#FFBF9D"/>
<path d="M350.173 46.1967C350.173 46.1967 350.275 46.2755 350.455 46.3655C350.701 46.4621 350.974 46.4621 351.22 46.3655C351.608 46.1333 351.929 45.8032 352.15 45.4083C352.372 45.0134 352.485 44.5674 352.48 44.1148C352.516 43.6044 352.435 43.0926 352.244 42.618C352.194 42.432 352.101 42.2606 351.972 42.1177C351.842 41.9749 351.681 41.8648 351.501 41.7965C351.383 41.7623 351.256 41.7706 351.143 41.8199C351.03 41.8692 350.938 41.9565 350.882 42.0666C350.792 42.2241 350.826 42.3479 350.792 42.3592C350.759 42.3705 350.668 42.2467 350.725 42.0103C350.763 41.8621 350.85 41.7311 350.972 41.639C351.055 41.581 351.148 41.5402 351.247 41.5189C351.345 41.4976 351.447 41.4964 351.546 41.5152C351.788 41.5708 352.012 41.6882 352.195 41.8558C352.379 42.0234 352.516 42.2355 352.593 42.4717C352.825 42.995 352.929 43.5659 352.897 44.1373C352.908 44.668 352.762 45.1901 352.478 45.6384C352.193 46.0868 351.783 46.4414 351.299 46.6581C351.138 46.6965 350.972 46.6993 350.81 46.6662C350.649 46.6332 350.497 46.5651 350.365 46.4668C350.185 46.343 350.162 46.2079 350.173 46.1967Z" fill="#FF9A6C"/>
<path d="M350.105 30.3628C349.375 30.9398 348.513 31.3264 347.596 31.4882C347.135 31.5578 346.665 31.4566 346.273 31.2038C345.881 30.951 345.595 30.5639 345.469 30.1153C345.39 29.7101 345.469 29.2262 345.233 28.8998C344.996 28.5735 344.31 28.641 343.815 28.686C342.948 28.752 342.085 28.5156 341.373 28.017C340.661 27.5184 340.144 26.7884 339.91 25.9514C339.645 26.2462 339.28 26.4308 338.886 26.4683C338.492 26.5058 338.098 26.3936 337.783 26.154C337.17 25.6478 336.629 25.0611 336.173 24.4097C335.945 24.0863 335.641 23.8239 335.288 23.6453C334.935 23.4668 334.543 23.3776 334.148 23.3856C333.731 23.5221 333.301 23.6164 332.865 23.6669C332.088 23.5881 331.74 22.6766 331.593 21.9001C331.447 21.1236 331.391 20.2233 330.738 19.7957C330.063 19.5242 329.313 19.5003 328.622 19.7281C327.902 19.8294 326.979 19.6606 326.799 18.9516C326.771 18.7644 326.781 18.5735 326.827 18.39C326.873 18.2065 326.956 18.034 327.069 17.8826C327.546 17.168 328.25 16.6356 329.067 16.372C329.884 16.1084 330.767 16.1291 331.571 16.4308C331.863 15.4457 332.442 14.5696 333.233 13.9137C334.024 13.2579 334.992 12.8517 336.015 12.7468C337.037 12.6419 338.067 12.843 338.975 13.3246C339.883 13.8062 340.627 14.5465 341.114 15.4518C341.744 14.8811 342.503 14.4718 343.326 14.259C344.149 14.0462 345.011 14.0362 345.839 14.2298C346.667 14.4235 347.435 14.815 348.078 15.3709C348.721 15.9267 349.22 16.6302 349.532 17.4212C350.257 17.2408 351.02 17.2745 351.727 17.5181C352.434 17.7618 353.055 18.2049 353.515 18.7941C353.963 19.3952 354.23 20.1119 354.284 20.8598C354.338 21.6076 354.177 22.3552 353.819 23.0142C354.368 23.2939 354.837 23.7077 355.184 24.2173C355.53 24.7268 355.742 25.3156 355.8 25.9289C355.811 26.2309 355.756 26.5316 355.638 26.81C355.521 27.0884 355.344 27.3377 355.119 27.5404C354.895 27.7431 354.629 27.8942 354.341 27.9833C354.052 28.0723 353.747 28.0971 353.448 28.0558C353.661 28.5455 353.693 29.0951 353.539 29.6064C353.384 30.1177 353.053 30.5574 352.604 30.8467C352.128 31.0847 351.583 31.1463 351.066 31.0207C350.549 30.895 350.093 30.5902 349.779 30.1603" fill="#263238"/>
<path d="M353.909 28.0674C353.935 28.2708 353.914 28.4772 353.85 28.6718C353.786 28.8664 353.679 29.0444 353.538 29.1927C353.252 29.5746 352.828 29.8291 352.356 29.9017C352.056 29.9506 351.748 29.9315 351.456 29.8458C351.164 29.7601 350.895 29.61 350.668 29.4066H350.916C350.603 29.9581 350.204 30.4558 349.734 30.8808C349.407 31.1773 349.024 31.4067 348.609 31.556C348.227 31.6942 347.816 31.7291 347.416 31.6573C347.076 31.6316 346.747 31.5291 346.452 31.3576C346.158 31.186 345.906 30.9499 345.717 30.667C345.476 30.291 345.315 29.8697 345.244 29.4291C345.205 29.2701 345.205 29.1041 345.244 28.9452C345.317 29.0882 345.374 29.2392 345.413 29.3953C345.538 29.7945 345.72 30.1735 345.953 30.5207C346.172 30.7735 346.442 30.9779 346.745 31.1207C347.047 31.2635 347.377 31.3416 347.711 31.3501C348.046 31.3585 348.378 31.2972 348.688 31.1699C348.998 31.0426 349.277 30.8521 349.509 30.6107C349.953 30.2095 350.332 29.7427 350.634 29.2265L350.747 29.0577L350.893 29.1927C351.082 29.3677 351.307 29.4996 351.552 29.5793C351.796 29.6589 352.056 29.6845 352.311 29.6541C352.724 29.6009 353.103 29.4012 353.38 29.0915C353.63 28.7936 353.811 28.4437 353.909 28.0674Z" fill="#455A64"/>
<path d="M342.768 14.4388C342.768 14.4388 342.622 14.4388 342.352 14.5963C341.974 14.7578 341.653 15.0281 341.429 15.3728L341.362 15.4966L341.283 15.3841C340.546 14.3724 339.561 13.5665 338.424 13.0433C337.693 12.7098 336.899 12.5334 336.095 12.5256C335.212 12.5204 334.345 12.7663 333.597 13.2346C333 13.5923 332.489 14.0762 332.1 14.6526C331.718 15.2006 331.479 15.8348 331.402 16.4982V16.6895L331.222 16.6332C330.393 16.4143 329.512 16.5189 328.757 16.9258C328.17 17.2556 327.698 17.7586 327.407 18.3663C327.165 18.9241 327.039 19.5251 327.036 20.1331C326.985 19.9769 326.962 19.8132 326.968 19.6492C326.957 19.181 327.05 18.7161 327.238 18.2875C327.522 17.6229 328.011 17.0667 328.634 16.7007C329.032 16.4658 329.472 16.312 329.93 16.2483C330.388 16.1846 330.854 16.2121 331.301 16.3294L331.109 16.4644C331.176 15.7691 331.412 15.1007 331.796 14.5175C332.213 13.902 332.758 13.3838 333.394 12.9983C334.201 12.4981 335.134 12.2367 336.084 12.2443C336.93 12.2611 337.763 12.4607 338.526 12.8295C339.691 13.392 340.685 14.2542 341.407 15.3278H341.249C341.505 14.9655 341.873 14.6968 342.296 14.5625C342.439 14.4796 342.602 14.4368 342.768 14.4388Z" fill="#455A64"/>
<path d="M349.577 57.7646L350.252 62.2661L325.314 75.1965L326.946 67.9154C329.286 65.864 331.876 64.117 334.655 62.7162C339.426 60.5093 344.432 58.8482 349.577 57.7646Z" fill="#F5F5F5"/>
<path d="M353.831 64.7981C353.831 64.7981 360.167 81.4534 360.234 87.5979C360.302 93.7424 356.723 110.387 356.723 110.387L338.83 144.53L335.679 169.727C323.795 169.727 307.882 167.397 290.777 164.303C290.777 164.303 303.876 117.094 308.006 110.747C312.136 104.4 326.619 75.3314 326.619 75.3314C327.762 72.9143 329.399 70.7637 331.425 69.0182C336.444 64.5167 345.649 62.1422 353.864 61.1406L353.831 64.7981Z" fill="#21409A"/>
<path d="M347.011 71.8098C341.902 71.641 334.868 74.4544 331.256 82.9509L327.441 93.5406L313.261 113.898L276.045 111.445L273.795 126.84C273.795 126.84 314.308 135.843 319.102 135.325C323.896 134.808 346.865 110.804 346.865 110.804C346.865 110.804 358.816 95.8926 358.231 83.4686" fill="#21409A"/>
<path d="M358.208 83.4687C358.197 83.641 358.197 83.814 358.208 83.9863C358.208 84.369 358.208 84.8754 358.208 85.5281C358.208 86.1808 358.017 87.0361 357.904 88.0151C357.7 89.1533 357.437 90.2801 357.117 91.3912C355.721 96.3541 352.435 103.275 346.752 110.714C343.252 114.326 339.313 118.276 334.936 122.451C332.753 124.533 330.434 126.683 328.015 128.821C326.799 129.879 325.539 130.948 324.234 131.983C322.94 133.047 321.546 133.982 320.07 134.774C319.72 134.953 319.337 135.056 318.944 135.078C318.517 135.078 318.112 135.078 317.684 135.078C316.817 134.988 315.951 134.92 315.084 134.774C313.329 134.538 311.573 134.234 309.784 133.93C306.217 133.311 302.582 132.602 298.868 131.871C291.463 130.385 283.788 128.765 275.922 127.054L273.93 126.615L274.189 126.986C274.976 121.754 275.742 116.611 276.439 111.603L276.091 111.884L313.306 114.281H313.396L313.486 114.146L327.621 93.7545L329.973 87.1373C330.589 85.1596 331.341 83.2269 332.224 81.353C333.725 78.3871 336.029 75.903 338.875 74.1844C340.675 73.1119 342.673 72.4116 344.749 72.125C345.286 72.046 345.827 71.9971 346.369 71.9787C346.553 71.9937 346.737 71.9937 346.921 71.9787C346.191 71.9016 345.456 71.9016 344.726 71.9787C342.619 72.2206 340.585 72.8949 338.751 73.9593C335.829 75.6656 333.452 78.1674 331.897 81.1729C330.982 83.0513 330.2 84.9917 329.557 86.9798L327.16 93.5857V93.5294L313.047 113.73L313.306 113.606L276.091 111.119H275.798V111.423C275.048 116.442 274.279 121.57 273.491 126.806V127.122L273.795 127.189L275.775 127.628C283.653 129.338 291.328 131.004 298.744 132.433C302.458 133.153 306.104 133.862 309.671 134.481C311.472 134.785 313.239 135.078 314.994 135.314C315.872 135.46 316.761 135.517 317.639 135.618C318.078 135.618 318.539 135.618 318.989 135.618C319.457 135.588 319.913 135.462 320.329 135.247C321.853 134.437 323.29 133.471 324.616 132.366C325.929 131.323 327.193 130.258 328.409 129.17C330.851 127.02 333.135 124.86 335.33 122.766C339.685 118.558 343.612 114.585 347.09 110.95C352.773 103.421 355.991 96.4441 357.331 91.4137C357.637 90.3022 357.885 89.1753 358.073 88.0377C358.163 87.0361 358.298 86.2033 358.31 85.5281C358.321 84.8529 358.31 84.4027 358.31 83.9751C358.293 83.8033 358.259 83.6336 358.208 83.4687Z" fill="#263238"/>
<path d="M323.288 76.4571C323.609 76.2114 323.91 75.9405 324.188 75.6468C324.47 75.3655 324.807 75.0391 325.235 74.679C325.663 74.3189 326.113 73.88 326.664 73.4523C327.934 72.4215 329.265 71.467 330.648 70.5939C332.358 69.5527 334.132 68.6205 335.96 67.803C339.306 66.3704 342.785 65.2698 346.347 64.517C347.72 64.2244 348.834 64.0106 349.599 63.8755C350.003 63.8252 350.402 63.7424 350.792 63.6279C350.384 63.6323 349.978 63.6699 349.577 63.7405C348.8 63.8305 347.675 63.9993 346.302 64.2694C342.699 64.9466 339.182 66.0184 335.813 67.4654C333.965 68.2831 332.178 69.2347 330.468 70.3126C329.079 71.2009 327.752 72.1822 326.495 73.2498C325.955 73.6887 325.505 74.1501 325.089 74.5214C324.672 74.8928 324.346 75.2529 324.087 75.5455C323.795 75.8261 323.528 76.1311 323.288 76.4571Z" fill="#263238"/>
<path d="M294.153 40.6827L297.686 51.1148L298.935 52.8591C298.935 52.8591 300.061 58.6547 300.061 59.8926C299.709 62.4949 299.198 65.0731 298.53 67.6126L302.12 73.3745L292.161 77.2007C292.161 77.2007 289.46 71.934 288.717 71.3376C287.893 70.3582 287.38 69.1553 287.243 67.8827C287.063 66.7574 285.577 59.8926 285.577 59.8926C285.577 59.8926 281.155 52.3415 283 51.9588C283.46 51.912 283.924 51.912 284.384 51.9588C284.384 51.9588 287.04 56.9217 287.761 57.023L288.762 56.4378C288.762 56.4378 286.691 48.8416 286.579 47.4349C286.466 46.0281 286.77 45.0153 287.862 44.8465C287.862 44.8465 288.683 45.1841 288.762 45.5442C288.841 45.9044 290.9 54.3784 291.373 54.2096C291.846 54.0408 291.621 53.2868 291.621 53.2868C291.621 53.2868 288.863 43.0122 288.987 42.427C289.037 42.0283 289.235 41.6629 289.541 41.4026C289.847 41.1423 290.24 41.0059 290.641 41.0203L292.746 46.6471C292.746 46.6471 291.767 41.8981 292.532 41.0203C292.725 40.7905 292.99 40.6323 293.284 40.5711C293.578 40.5099 293.884 40.5492 294.153 40.6827Z" fill="#FFBF9D"/>
<path d="M292.014 63.7637C292.104 63.7637 292.014 62.8746 292.375 61.5129C292.857 59.6175 293.943 57.9307 295.469 56.7076L295.604 56.6064V56.4488C295.432 55.6985 295.252 54.9108 295.064 54.0855C294.895 53.8379 294.715 53.5566 294.546 53.264C293.999 52.3357 293.618 51.3188 293.421 50.2593C293.319 49.7959 293.319 49.316 293.421 48.8526C293.46 48.666 293.552 48.4946 293.685 48.3588C293.819 48.2231 293.989 48.1288 294.175 48.0873L294.006 48.0198C295.199 49.1452 296.201 50.1017 296.91 50.7432C297.247 51.1042 297.625 51.4251 298.035 51.6998C297.751 51.2896 297.423 50.9122 297.056 50.5744C296.392 49.8767 295.447 48.8863 294.276 47.716L294.209 47.6484H294.108C293.837 47.6993 293.587 47.8272 293.387 48.0169C293.187 48.2066 293.047 48.4499 292.982 48.7175C292.845 49.2471 292.826 49.8003 292.926 50.3381C293.127 51.4634 293.531 52.5426 294.119 53.5228C294.283 53.8239 294.467 54.1134 294.67 54.3894V54.2993L295.233 56.6513L295.334 56.3925C293.721 57.685 292.616 59.5068 292.217 61.5354C292.105 62.1097 292.06 62.6951 292.082 63.2798C292.039 63.4376 292.017 63.6002 292.014 63.7637Z" fill="#FF9A6C"/>
<path d="M292.015 55.3232C290.86 55.512 289.769 55.9836 288.841 56.6962C287.825 57.2727 286.963 58.0876 286.332 59.0707C287.304 58.4833 288.24 57.8369 289.134 57.1351C290.126 56.5843 291.088 55.9794 292.015 55.3232Z" fill="#FF9A6C"/>
<path d="M287.974 76.3003L302.987 69.8857L311.371 83.165L292.352 84.7406L287.974 76.3003Z" fill="#21409A"/>
<path d="M423.108 47.1874L426.327 56.6742L427.452 58.2722C427.452 58.2722 428.431 63.5502 428.487 64.6756C428.164 67.0424 427.698 69.3874 427.092 71.6978L430.367 76.9533L421.296 80.4307C421.296 80.4307 418.832 75.6366 418.156 75.0964C417.402 74.2053 416.935 73.1068 416.817 71.9454C416.648 70.8988 415.298 64.6756 415.298 64.6756C415.298 64.6756 411.269 57.7996 412.946 57.4507C413.365 57.4056 413.787 57.4056 414.206 57.4507C414.206 57.4507 416.637 61.9522 417.279 62.0647L418.201 61.5358C418.201 61.5358 416.311 54.6261 416.21 53.3319C416.108 52.0377 416.378 51.0812 417.335 50.9799C417.335 50.9799 418.078 51.2725 418.145 51.6101C418.213 51.9477 420.103 59.6452 420.531 59.4877C420.959 59.3301 420.756 58.6436 420.756 58.6436C420.756 58.6436 418.235 49.2918 418.359 48.7517C418.406 48.3908 418.585 48.0601 418.861 47.8232C419.138 47.5864 419.492 47.4601 419.856 47.4687L421.78 52.6117C421.78 52.6117 420.891 48.2903 421.578 47.5138C421.755 47.2897 422.005 47.1344 422.284 47.0748C422.563 47.0152 422.855 47.0551 423.108 47.1874Z" fill="#AE7461"/>
<path d="M421.184 68.1865C421.263 68.1865 421.184 67.3875 421.51 66.0934C421.946 64.3699 422.934 62.8365 424.324 61.727L424.459 61.6257V61.4906L423.963 59.3412C423.806 59.1161 423.648 58.8573 423.491 58.5985C422.992 57.7516 422.638 56.8273 422.444 55.8638C422.353 55.441 422.353 55.0037 422.444 54.5809C422.479 54.4108 422.562 54.2544 422.684 54.1306C422.806 54.0068 422.961 53.9209 423.131 53.8832L422.973 53.8157C424.098 54.8622 424.976 55.7175 425.618 56.3027C425.931 56.637 426.286 56.9283 426.676 57.1693C426.421 56.7906 426.122 56.4431 425.786 56.1339C425.179 55.4924 424.312 54.6034 423.254 53.5343L423.198 53.4668H423.108C422.844 53.4947 422.596 53.6023 422.394 53.7752C422.193 53.9481 422.05 54.1781 421.983 54.4346C421.857 54.9199 421.838 55.4267 421.927 55.9201C422.125 56.9473 422.506 57.9306 423.052 58.8235C423.221 59.0936 423.378 59.3637 423.558 59.6113V59.5213C423.727 60.264 423.907 60.9842 424.065 61.6707L424.155 61.4344C422.689 62.6082 421.684 64.2623 421.319 66.1046C421.221 66.6314 421.18 67.1671 421.195 67.7026C421.167 67.8625 421.163 68.0256 421.184 68.1865Z" fill="#6F4439"/>
<path d="M421.183 60.5117C420.132 60.6831 419.142 61.1166 418.302 61.7722C417.389 62.296 416.617 63.0336 416.052 63.9216C416.934 63.3882 417.783 62.8019 418.595 62.166C419.489 61.6652 420.353 61.1129 421.183 60.5117Z" fill="#6F4439"/>
<path d="M469.237 26.6948C467.493 24.6466 468.022 21.3043 469.89 19.3687C471.891 17.5303 474.533 16.5488 477.249 16.634C481.402 16.544 485.836 18.097 488.132 21.5744C490.428 25.0518 489.707 30.4985 486.027 32.4454C487.864 32.7917 489.572 33.632 490.968 34.8762C492.239 36.2491 492.543 38.6799 491.091 39.8503C489.448 41.1895 487.018 40.0754 485.228 38.95C485.735 39.5311 485.999 40.2841 485.968 41.0543C485.937 41.8244 485.612 42.5534 485.059 43.0913C484.481 43.604 483.785 43.9665 483.034 44.1471C482.282 44.3276 481.498 44.3206 480.749 44.1267C479.256 43.7343 477.858 43.0412 476.642 42.0898" fill="#263238"/>
<path d="M475.449 28.5848C474.937 27.505 474.257 26.5135 473.434 25.6476C473.022 25.2129 472.515 24.8784 471.953 24.6697C471.392 24.461 470.79 24.3836 470.193 24.4435C469.913 24.4654 469.643 24.5599 469.41 24.7178C469.177 24.8756 468.989 25.0913 468.865 25.3437C468.814 25.4713 468.793 25.6091 468.804 25.7461C468.815 25.8831 468.858 26.0157 468.929 26.1335C468.999 26.2513 469.097 26.351 469.213 26.4249C469.329 26.4987 469.46 26.5447 469.597 26.5592L469.709 26.6717C470.913 27.7971 472.151 28.9224 473.4 30.0478C473.7 30.3387 474.051 30.5714 474.436 30.7342C474.624 30.8041 474.828 30.8222 475.026 30.7866C475.224 30.7509 475.409 30.6629 475.561 30.5317C476.101 30.0028 475.786 29.1925 475.449 28.5848Z" fill="#21409A"/>
<path d="M477.699 32.7596C475.857 30.2086 473.464 28.105 470.697 26.6049C467.931 25.1049 464.862 24.2468 461.719 24.0943C458.028 23.903 456.475 24.612 453.842 25.2197C451.153 25.7635 448.742 27.2379 447.033 29.3835C444.935 31.9208 443.514 34.9485 442.903 38.1839C442.317 41.4972 442.039 44.8575 442.07 48.2221C442.106 51.6078 443.076 54.918 444.872 57.7877L453.358 59.5658C458.062 59.8921 464.994 66.0029 469.619 65.0801C474.244 64.1573 478.622 56.7636 480.164 52.1046C482.133 45.9039 481.638 37.9701 477.699 32.7596Z" fill="#263238"/>
<path d="M452.705 74.7364C452.863 71.7429 453.099 67.9842 453.099 67.9842C453.099 67.9842 446.167 66.9713 444.557 57.9909C443.758 53.4895 443.837 46.1634 444.096 40.1539C444.321 34.7409 449.194 27.5273 455.879 27.7749L458.861 27.5273L470.114 32.4452C470.906 32.5154 471.642 32.8786 472.179 33.4636C472.716 34.0486 473.015 34.8133 473.018 35.6075L471.893 75.9968L464.42 86.7552L452.761 79.3053L452.705 74.7364Z" fill="#AE7461"/>
<path d="M458.005 56.3926C457.954 55.932 457.734 55.5068 457.387 55.1997C457.073 54.9096 456.672 54.7312 456.247 54.6925C455.821 54.6538 455.395 54.757 455.034 54.9859C454.661 55.2555 454.365 55.6193 454.177 56.0403C453.989 56.4613 453.916 56.9246 453.965 57.3829C454.152 57.6639 454.396 57.9024 454.681 58.0828C454.966 58.2631 455.286 58.3813 455.62 58.4295H455.935C456.466 58.4402 456.982 58.2561 457.387 57.9118C457.597 57.7208 457.761 57.4853 457.868 57.2224C457.975 56.9595 458.022 56.676 458.005 56.3926Z" fill="#6F4439"/>
<path d="M446.189 46.8836C446.189 47.182 446.308 47.4683 446.519 47.6793C446.73 47.8903 447.016 48.0089 447.315 48.0089C447.604 48.0093 447.882 47.8985 448.091 47.6995C448.301 47.5004 448.425 47.2284 448.44 46.9398C448.44 46.6414 448.321 46.3551 448.11 46.1441C447.899 45.933 447.613 45.8145 447.315 45.8145C447.026 45.8141 446.748 45.9249 446.538 46.124C446.329 46.323 446.204 46.595 446.189 46.8836Z" fill="#263238"/>
<path d="M446.02 43.2601C446.167 43.4064 447.033 42.7424 448.271 42.7199C449.509 42.6974 450.432 43.2939 450.522 43.1476C450.612 43.0013 450.432 42.81 450.027 42.5286C449.482 42.1633 448.836 41.9782 448.181 41.9997C447.533 42.007 446.905 42.2242 446.392 42.6187C446.077 42.9113 445.953 43.1926 446.02 43.2601Z" fill="#263238"/>
<path d="M453.662 53.264C453.001 53.0798 452.321 52.9741 451.636 52.9489C451.321 52.9489 451.017 52.8589 450.961 52.6451C450.927 52.3179 450.994 51.9881 451.152 51.6998L452.041 49.2577C452.875 47.1965 453.538 45.0698 454.022 42.8994C453.032 44.8942 452.2 46.9637 451.535 49.0889C451.231 49.9442 450.949 50.7545 450.679 51.5422C450.491 51.9303 450.443 52.3719 450.544 52.7914C450.591 52.9023 450.664 53.0007 450.756 53.0789C450.847 53.157 450.956 53.2127 451.073 53.2415C451.25 53.2834 451.431 53.3061 451.613 53.309C452.295 53.39 452.984 53.3749 453.662 53.264Z" fill="#263238"/>
<path d="M453.099 68.0061C457.345 67.9852 461.502 66.7853 465.107 64.54C465.107 64.54 462.012 70.8533 452.975 70.1669L453.099 68.0061Z" fill="#6F4439"/>
<path d="M457.342 54.0518C457.139 54.0518 457.162 55.4022 456.025 56.3813C454.889 57.3603 453.448 57.2365 453.437 57.4278C453.426 57.6192 453.763 57.6867 454.371 57.6867C455.162 57.6819 455.927 57.3991 456.532 56.8877C457.114 56.3986 457.478 55.6983 457.544 54.9408C457.589 54.3781 457.443 54.0518 457.342 54.0518Z" fill="#263238"/>
<path d="M446.189 40.7725C446.403 41.0763 447.315 40.8513 448.44 40.9188C449.565 40.9863 450.477 41.2677 450.691 40.9863C450.904 40.705 450.691 40.5587 450.286 40.2661C449.752 39.887 449.117 39.6754 448.462 39.6584C447.815 39.6197 447.171 39.7681 446.606 40.086C446.279 40.3448 446.189 40.6262 446.189 40.7725Z" fill="#263238"/>
<path d="M460.132 47.1306C460.132 47.4291 460.014 47.7153 459.803 47.9264C459.592 48.1374 459.306 48.256 459.007 48.256C458.71 48.2714 458.42 48.1688 458.198 47.9706C457.977 47.7724 457.843 47.4948 457.825 47.1982C457.825 46.8997 457.944 46.6135 458.155 46.4024C458.366 46.1914 458.652 46.0728 458.951 46.0728C459.248 46.0574 459.538 46.16 459.76 46.3582C459.981 46.5564 460.115 46.834 460.132 47.1306Z" fill="#263238"/>
<path d="M462.844 43.3612C462.698 43.5075 461.832 42.8435 460.594 42.8322C459.356 42.821 458.433 43.4174 458.343 43.2599C458.253 43.1023 458.433 42.9223 458.838 42.6409C459.379 42.2757 460.021 42.0906 460.673 42.112C461.319 42.1169 461.946 42.33 462.462 42.7197C462.788 43.0235 462.912 43.2936 462.844 43.3612Z" fill="#263238"/>
<path d="M462.237 39.3548C461.989 39.6361 461.033 39.3548 459.874 39.2873C458.715 39.2197 457.747 39.4448 457.522 39.141C457.297 38.8371 457.589 38.7246 458.017 38.4545C458.606 38.1352 459.272 37.987 459.941 38.0269C460.609 38.0482 461.257 38.2589 461.809 38.6346C462.215 38.9272 462.35 39.2197 462.237 39.3548Z" fill="#263238"/>
<path d="M470.947 50.6531C470.947 49.9891 471.678 48.4024 472.331 48.2673C474.098 47.9635 477.294 48.0422 477.407 52.5324C477.575 58.6769 471.375 57.5741 471.352 57.394C471.33 57.2139 470.947 52.9713 470.947 50.6531Z" fill="#AE7461"/>
<path d="M472.962 55.11C472.962 55.11 473.063 55.1775 473.254 55.2563C473.512 55.354 473.796 55.354 474.053 55.2563C474.436 54.9891 474.741 54.6258 474.939 54.2031C475.137 53.7803 475.219 53.3129 475.179 52.848C475.183 52.3189 475.067 51.7958 474.841 51.3175C474.776 51.1276 474.666 50.9561 474.521 50.8171C474.377 50.6781 474.201 50.5757 474.008 50.5185C473.884 50.4875 473.754 50.5023 473.64 50.5602C473.526 50.6181 473.437 50.7152 473.389 50.8336C473.311 51.0024 473.389 51.1262 473.322 51.1374C473.254 51.1487 473.187 51.0362 473.232 50.7886C473.262 50.6365 473.341 50.4983 473.457 50.3947C473.626 50.2618 473.839 50.1975 474.053 50.2146C474.304 50.261 474.538 50.37 474.735 50.5313C474.931 50.6927 475.084 50.9012 475.179 51.1374C475.455 51.6652 475.598 52.2524 475.595 52.848C475.641 53.3929 475.524 53.9391 475.26 54.4178C474.995 54.8965 474.595 55.2861 474.11 55.5376C473.945 55.5929 473.77 55.6095 473.599 55.5861C473.427 55.5626 473.263 55.4998 473.119 55.4026C472.973 55.2563 472.939 55.1212 472.962 55.11Z" fill="#6F4439"/>
<path d="M472.556 48.3006L470.947 49.8536C464.443 43.1802 451.816 26.6036 452.559 27.5939C455.668 26.5564 458.987 26.3127 462.214 26.885C467.177 27.9091 476.585 30.7449 476.225 36.6419C475.791 40.7337 474.544 44.6976 472.556 48.3006Z" fill="#263238"/>
<path d="M481.503 47.2547C481.494 47.1315 481.468 47.0102 481.424 46.8946C481.324 46.5583 481.196 46.2309 481.042 45.9155C480.448 44.7565 479.607 43.7422 478.577 42.9446C477.053 41.7686 475.335 40.8662 473.502 40.2775C471.476 39.546 469.181 38.9383 466.952 37.8917C464.842 36.9205 462.848 35.7124 461.01 34.2905C459.515 33.1204 458.129 31.8172 456.869 30.3968C456.022 29.4367 455.229 28.4298 454.495 27.3808L453.909 26.5143C453.848 26.41 453.776 26.3121 453.696 26.2217C453.737 26.3356 453.789 26.445 453.853 26.548C453.977 26.7506 454.146 27.0657 454.393 27.4483C455.074 28.5285 455.826 29.5623 456.644 30.5431C457.909 31.9914 459.306 33.3176 460.819 34.5043C462.662 35.9578 464.672 37.1856 466.806 38.1618C468.961 39.0713 471.162 39.8676 473.401 40.5475C475.208 41.1118 476.909 41.9754 478.431 43.1021C479.448 43.8731 480.295 44.8463 480.918 45.9605C481.357 46.7708 481.47 47.2659 481.503 47.2547Z" fill="#455A64"/>
<path d="M479.691 48.1553C479.724 47.6967 479.659 47.2364 479.5 46.8048C479.065 45.6143 478.28 44.5829 477.249 43.8451C475.731 42.7886 474.017 42.0463 472.208 41.6619C470.034 41.1463 467.924 40.3914 465.917 39.4112C463.92 38.4132 462.057 37.1694 460.369 35.7088C458.99 34.5211 457.735 33.1977 456.621 31.7587C455.869 30.7817 455.178 29.7595 454.551 28.6977L454.067 27.8312C454.015 27.7227 453.951 27.6206 453.875 27.5273C453.903 27.6426 453.949 27.7527 454.011 27.8537L454.449 28.7653C455.032 29.8576 455.698 30.9035 456.441 31.8938C458.901 35.185 462.096 37.8556 465.771 39.6925C467.798 40.68 469.931 41.435 472.129 41.9432C473.91 42.3024 475.603 43.0058 477.114 44.0139C478.125 44.7197 478.907 45.7054 479.365 46.8499C479.511 47.2749 479.62 47.7116 479.691 48.1553Z" fill="#455A64"/>
<path d="M374.008 35.3711C369.073 39.967 365.449 45.793 363.509 52.2515C360.718 62.4586 362.316 91.5718 358.141 100.845C353.966 110.118 334.508 144.576 334.137 152.094C333.765 159.611 335.566 162.605 339.764 169.773C343.961 176.942 352.987 188.06 359.885 188.195C366.784 188.331 368.776 181.657 368.776 181.657L356.948 158.295L372.455 119.627L383.169 77.0095L387.997 55.999L374.008 35.3711Z" fill="#263238"/>
<path d="M345.739 153.106C345.739 153.106 341.665 159.746 345.233 165.632C348.8 171.517 359.063 188.769 364.589 186.721C370.114 184.673 372.466 181.409 371.949 180.723C371.431 180.036 367.83 166.026 369.541 152.836C371.251 139.647 384.452 89.3658 387.49 77.7183C390.529 66.0708 392.104 43.6648 387.558 35.5509C383.011 27.437 374.053 35.3708 374.053 35.3708C374.053 35.3708 380.513 58.317 379.185 69.1318C377.857 79.9465 345.739 153.106 345.739 153.106Z" fill="#E0E0E0"/>
<path d="M345.739 153.106C345.739 153.106 345.841 152.926 346.01 152.566C346.178 152.206 346.437 151.632 346.752 150.923C347.405 149.46 348.35 147.333 349.566 144.576C351.996 139.016 355.519 130.925 359.84 120.707C364.162 110.488 369.35 98.1995 374.673 84.0874C375.337 82.3206 376.012 80.5312 376.631 78.6969L377.598 75.9285L378.476 73.0813C378.784 72.1186 379.033 71.1377 379.219 70.1442C379.433 69.1407 379.558 68.12 379.59 67.0944C379.64 65.0208 379.561 62.9462 379.354 60.8824C378.366 52.2265 376.68 43.6646 374.312 35.2804L374.222 35.618C375.587 34.4649 377.13 33.5413 378.791 32.8834C379.593 32.4714 380.474 32.237 381.375 32.1961C382.276 32.1551 383.175 32.3085 384.011 32.6459C384.847 32.9833 385.6 33.4968 386.22 34.1514C386.84 34.806 387.312 35.5864 387.603 36.4395C388.374 38.1588 388.918 39.9707 389.223 41.83C389.842 45.6617 390.121 49.5405 390.056 53.4212C390.018 57.3925 389.774 61.3591 389.325 65.3051C389.01 68.231 388.56 71.1232 387.997 73.9591C387.434 76.795 386.646 79.5859 385.937 82.3656C384.497 87.9249 383.083 93.4017 381.695 98.7959C378.949 109.566 376.338 119.975 373.997 129.923C372.872 134.898 371.747 139.759 370.745 144.553C369.671 149.142 369.034 153.822 368.843 158.53C368.747 162.931 369.03 167.333 369.687 171.686C369.995 173.779 370.37 175.816 370.813 177.796C371.021 178.795 371.303 179.777 371.657 180.734C371.893 181.049 371.657 181.454 371.398 181.859C371.138 182.265 370.836 182.642 370.497 182.984C369.148 184.266 367.582 185.299 365.872 186.034C365.119 186.473 364.268 186.717 363.396 186.743C362.552 186.642 361.743 186.345 361.033 185.877C359.638 184.951 358.364 183.855 357.241 182.613C356.115 181.42 355.125 180.193 354.191 178.989C351.053 174.785 348.141 170.416 345.469 165.901C344.448 164.295 343.891 162.437 343.86 160.533C343.841 159.136 344.03 157.744 344.423 156.403C344.671 155.581 344.976 154.776 345.334 153.995C345.582 153.466 345.717 153.196 345.717 153.196C345.101 154.18 344.624 155.244 344.299 156.358C343.87 157.708 343.654 159.117 343.658 160.533C343.67 162.479 344.219 164.383 345.244 166.036C347.891 170.554 350.784 174.923 353.91 179.124C354.844 180.34 355.845 181.589 356.959 182.793C358.098 184.077 359.395 185.211 360.819 186.169C361.584 186.681 362.46 187.005 363.374 187.114C363.614 187.131 363.854 187.131 364.094 187.114C364.332 187.071 364.565 187.007 364.792 186.923C365.219 186.754 365.647 186.597 366.075 186.394C367.838 185.642 369.453 184.583 370.846 183.266C371.206 182.924 371.53 182.547 371.814 182.14C371.961 181.919 372.082 181.681 372.174 181.431C372.229 181.284 372.252 181.127 372.242 180.97C372.236 180.87 372.205 180.773 372.152 180.689L372.084 180.531C371.763 179.607 371.499 178.664 371.296 177.706C370.858 175.748 370.486 173.711 370.171 171.641C369.541 167.315 369.274 162.945 369.372 158.575C369.572 153.899 370.217 149.253 371.296 144.699C372.276 139.962 373.401 135.111 374.571 130.137C376.934 120.2 379.545 109.791 382.302 99.021L386.545 82.5344C387.254 79.7547 388.053 76.9638 388.616 74.0942C389.178 71.2245 389.64 68.321 389.955 65.3726C390.405 61.4041 390.649 57.415 390.686 53.4212C390.752 49.5027 390.469 45.5861 389.842 41.7175C389.523 39.8005 388.959 37.9323 388.166 36.1582C387.837 35.2327 387.316 34.3876 386.637 33.6788C385.957 32.9699 385.135 32.4136 384.224 32.0465C383.313 31.6794 382.335 31.5101 381.354 31.5496C380.372 31.5891 379.411 31.8365 378.533 32.2756C376.799 32.9657 375.187 33.9309 373.761 35.1341L373.615 35.2579V35.4604C375.978 43.8043 377.668 52.3244 378.668 60.9387C380.142 69.3451 376.484 76.8401 374.065 83.8961C368.787 98.0082 363.621 110.308 359.379 120.549C355.136 130.79 351.648 138.881 349.251 144.486C348.125 147.265 347.169 149.404 346.538 150.878C346.235 151.598 346.01 152.149 345.852 152.532C345.694 152.915 345.739 153.106 345.739 153.106Z" fill="#263238"/>
<path d="M60.9547 206.393L659.941 206.393V122.621L60.9547 122.621V206.393Z" fill="#21409A"/>
<g opacity="0.4">
<path d="M60.9549 206.392L659.941 206.392V122.62L60.9549 122.62V206.392Z" fill="black"/>
</g>
<path d="M496.223 39.1064C491.292 43.7058 487.669 49.5306 485.723 55.9869C482.944 66.1939 484.53 95.3071 480.355 104.591C476.18 113.876 456.723 148.312 456.351 155.829C455.98 163.347 457.78 166.351 461.978 173.509C466.176 180.666 475.212 191.796 482.111 191.931C489.009 192.066 490.99 185.392 490.99 185.392L479.162 162.041L494.67 123.407L505.395 80.7787L510.222 59.7681L496.223 39.1064Z" fill="#263238"/>
<path d="M467.965 156.842C467.965 156.842 463.891 163.482 467.447 169.367C471.004 175.253 481.278 192.505 486.815 190.457C492.352 188.409 494.692 185.145 494.175 184.47C493.657 183.795 490.056 169.761 491.755 156.572C493.454 143.383 506.678 93.1016 509.761 81.4653C512.844 69.829 514.375 47.4005 509.829 39.2979C505.282 31.1953 496.324 39.1066 496.324 39.1066C496.324 39.1066 502.795 62.064 501.456 72.8675C500.117 83.671 467.965 156.842 467.965 156.842Z" fill="#E0E0E0"/>
<path d="M467.965 156.843L468.235 156.302C468.404 155.909 468.652 155.368 468.978 154.671C469.619 153.196 470.565 151.069 471.791 148.312C474.222 142.764 477.745 134.662 482.066 124.443C486.387 114.225 491.564 101.936 496.887 87.824C497.562 86.0684 498.226 84.2679 498.856 82.4335C499.171 81.522 499.498 80.5992 499.813 79.6651L500.691 76.8292C501.003 75.8638 501.251 74.8788 501.433 73.8807C501.653 72.882 501.778 71.8646 501.805 70.8423C501.853 68.7652 501.778 66.6872 501.58 64.619C500.587 55.9601 498.901 47.3948 496.538 39.0057L496.437 39.3321C497.804 38.1765 499.351 37.2527 501.017 36.5974C501.82 36.1877 502.702 35.9553 503.602 35.916C504.503 35.8768 505.402 36.0315 506.237 36.3698C507.073 36.7081 507.826 37.222 508.446 37.8768C509.065 38.5316 509.537 39.3119 509.829 40.1649C510.599 41.8835 511.14 43.6958 511.438 45.5554C512.062 49.3825 512.341 53.2582 512.271 57.1353C512.236 61.1064 511.996 65.0731 511.55 69.0192C511.235 71.9451 510.785 74.8373 510.211 77.6732C509.637 80.5091 508.872 83.3 508.152 86.0797C506.726 91.6465 505.312 97.1232 503.909 102.51C501.163 113.291 498.564 123.689 496.223 133.649C495.098 138.623 493.972 143.473 492.971 148.222C491.892 152.814 491.251 157.498 491.058 162.211C490.973 166.608 491.256 171.004 491.902 175.355C492.217 177.448 492.599 179.496 493.027 181.465C493.24 182.467 493.522 183.452 493.871 184.414C494.119 184.718 493.871 185.134 493.623 185.539C493.364 185.945 493.062 186.322 492.723 186.665C491.372 187.945 489.807 188.977 488.098 189.714C487.339 190.152 486.486 190.399 485.611 190.435C484.767 190.325 483.959 190.024 483.248 189.557C481.851 188.638 480.58 187.541 479.466 186.293C478.341 185.1 477.339 183.874 476.405 182.67C473.273 178.457 470.373 174.076 467.718 169.548C466.693 167.942 466.133 166.084 466.097 164.18C466.076 162.782 466.269 161.389 466.671 160.05C466.909 159.224 467.214 158.418 467.583 157.642C467.819 157.113 467.965 156.843 467.965 156.843C467.342 157.828 466.861 158.896 466.536 160.016C466.11 161.363 465.898 162.768 465.906 164.18C465.911 166.126 466.461 168.033 467.492 169.683C470.126 174.233 473.011 178.632 476.135 182.861C477.069 184.076 478.071 185.325 479.196 186.53C480.33 187.819 481.627 188.954 483.056 189.906C483.821 190.418 484.697 190.742 485.611 190.851C485.85 190.873 486.091 190.873 486.331 190.851C486.565 190.806 486.794 190.742 487.018 190.66C487.445 190.491 487.884 190.333 488.3 190.131C490.065 189.381 491.681 188.322 493.072 187.002C493.437 186.666 493.762 186.288 494.04 185.877C494.193 185.659 494.314 185.42 494.4 185.168C494.453 185.024 494.476 184.871 494.467 184.718C494.461 184.616 494.434 184.517 494.389 184.425L494.321 184.279C494.001 183.351 493.738 182.403 493.533 181.443C493.083 179.485 492.708 177.463 492.408 175.377C491.768 171.053 491.497 166.682 491.598 162.312C491.803 157.636 492.451 152.99 493.533 148.436C494.501 143.698 495.627 138.848 496.808 133.874C499.16 123.937 501.771 113.527 504.539 102.758C505.927 97.3783 507.342 91.9053 508.782 86.3385C509.491 83.5589 510.29 80.7792 510.853 77.8983C511.415 75.0174 511.877 72.1252 512.192 69.188C512.647 65.2199 512.891 61.2306 512.923 57.2366C512.995 53.3142 512.712 49.3933 512.079 45.5216C511.765 43.6034 511.201 41.7345 510.403 39.9623C509.654 38.1255 508.227 36.6469 506.419 35.8322C504.579 35.1999 502.566 35.2925 500.792 36.091C499.059 36.7711 497.451 37.7332 496.032 38.9382L495.874 39.062L495.93 39.2646C498.294 47.6084 499.983 56.1285 500.983 64.7428C502.469 73.1493 498.8 80.6442 496.392 87.7002C491.103 101.812 485.937 114.112 481.706 124.353L471.578 148.29L468.854 154.693C468.562 155.402 468.325 155.953 468.168 156.347C468.093 156.509 468.025 156.674 467.965 156.843Z" fill="#263238"/>
<path d="M689.043 124.691C689.043 124.691 686.578 101.553 685.475 98.6274C684.372 95.7015 679.983 89.5457 679.983 89.5457V63.4823C683.281 60.2525 683.832 57.6191 683.832 57.6191C684.44 56.0549 644.85 51.7672 644.85 51.7672C644.85 51.7672 554.539 22.7666 535.869 17.2073C517.2 11.648 433.202 3.70297 433.202 3.70297C370.34 -4.28711 327.508 0.945833 283.011 16.5771C257.049 25.7038 151.018 81.8482 151.018 81.8482L140.304 82.726C140.304 82.726 107.252 87.4075 99.791 88.2853C87.5245 89.737 43.3653 106.741 26.3385 117.545C18.3245 122.682 11.08 128.93 4.82158 136.102C1.88307 139.554 0.285186 143.948 0.32013 148.481V183.131C-0.501385 195.431 30.2435 219.739 30.2435 219.739H68.067V198.807H69.1924C69.0686 197.142 68.9898 195.431 68.9898 193.766C68.9898 159.318 94.7044 131.398 126.383 131.398C158.062 131.398 183.777 159.318 183.777 193.766C183.777 195.465 183.698 197.142 183.574 198.807L183.349 219.897H511.955L512.079 191.481C513.204 158.103 538.446 131.398 569.473 131.398C600.499 131.398 625.741 158.103 626.866 191.481L626.877 213.437C626.877 213.437 669.011 207.034 674.222 202.645C679.432 198.256 700.881 168.963 700.881 161.355C700.881 153.748 689.043 124.691 689.043 124.691ZM374.166 78.4721L243.624 88.3641L223.435 59.2622C223.435 59.2622 274.009 28.5735 318.46 19.3005C363.554 9.90371 386.354 12.447 386.354 12.447L374.166 78.4721ZM403.223 78.4721C403.223 78.4721 407.33 15.8681 408.962 13.6737C410.594 11.4792 530.017 27.6845 532.887 29.4288C535.757 31.1731 550.533 60.939 550.893 62.2669L403.223 78.4721Z" fill="#21409A"/>
<path d="M66.1426 161.299L66.4464 160.782C66.649 160.433 66.9191 159.904 67.3355 159.24C68.112 157.878 69.3611 155.92 71.0717 153.456C73.1979 150.467 75.5095 147.614 77.9927 144.914C81.2783 141.293 84.9246 138.016 88.8749 135.135C93.6431 131.573 98.9252 128.758 104.54 126.785C111.071 124.602 117.911 123.484 124.797 123.476C132.603 123.28 140.4 124.158 147.968 126.087C152.07 127.105 156.07 128.495 159.919 130.239C163.994 132.003 167.832 134.271 171.342 136.992L171.454 137.07H171.6L258.647 127.91L339.538 119.312L341.857 119.065L344.175 118.941L348.755 118.704L357.758 118.288L374.965 117.624C386.072 117.264 396.414 117.039 405.856 116.893C424.751 116.6 440.045 116.566 450.612 116.51L462.777 116.431H465.939H467.065C467.065 116.431 466.693 116.431 465.939 116.431H462.777L450.612 116.364C440.045 116.364 424.728 116.296 405.856 116.51C396.403 116.622 386.061 116.825 374.954 117.151C369.394 117.316 363.655 117.527 357.736 117.782L348.733 118.187L344.141 118.412L341.823 118.536L339.493 118.783L258.591 127.313L171.533 136.564L171.769 136.631C168.204 133.883 164.31 131.588 160.178 129.8C156.293 128.057 152.26 126.667 148.125 125.648C140.515 123.723 132.677 122.852 124.83 123.06C117.884 123.077 110.987 124.217 104.405 126.436C98.75 128.451 93.4368 131.32 88.6498 134.943C84.6928 137.859 81.0462 141.174 77.7676 144.835C75.2939 147.56 73.0008 150.443 70.9029 153.467C69.2148 155.954 67.9882 157.968 67.2342 159.319C66.4802 160.669 66.1426 161.299 66.1426 161.299Z" fill="#263238"/>
<g opacity="0.2">
<path d="M0.3089 158.665L24.5492 149.437L27.4414 163.492L66.1427 161.298C66.1427 161.298 83.1807 126.569 118.022 123.52C147.855 120.897 171.6 136.731 171.6 136.731L342.071 118.725C342.071 118.725 428.543 115.214 461.899 115.653C495.255 116.092 524.65 141.953 524.65 141.953C524.65 141.953 534.485 126.727 569.372 126.378C604.258 126.029 618.797 147.884 618.797 147.884C643.766 144.282 667.279 133.936 686.803 117.96L688.502 119.412C688.851 122.529 689.088 124.735 689.088 124.735C689.088 124.735 700.926 153.724 700.926 161.343C700.926 168.962 679.488 198.244 674.267 202.633C669.045 207.021 626.878 213.436 626.878 213.436L626.956 191.514C625.831 158.136 600.589 131.431 569.563 131.431C538.537 131.431 513.295 158.136 512.169 191.514L512.045 219.929H183.439L183.664 198.84C183.788 197.175 183.867 195.464 183.867 193.798C183.867 159.351 158.164 131.431 126.473 131.431C94.7832 131.431 69.0799 159.351 69.0799 193.798C69.0799 195.498 69.1586 197.175 69.2824 198.84H68.1571V219.929H30.2323C30.2323 219.929 -0.512616 195.622 0.3089 183.321V158.665Z" fill="black"/>
</g>
<path d="M585.014 53.6358L552.716 28.8778C551.531 27.9611 550.127 27.3713 548.642 27.1672C480.063 17.5791 426.991 9.16138 399.34 8.12605C307.972 2.78057 246.775 41.9545 238.053 46.3884C229.332 50.8223 192.172 73.0258 183.777 81.6461C179.579 85.9562 180.221 89.7487 181.92 92.4608C182.789 93.8187 184.007 94.9183 185.446 95.6448C186.885 96.3713 188.493 96.6981 190.102 96.5909L390.214 84.7521L554.337 65.4183L583.214 61.3107C586.792 60.8043 587.985 55.8865 585.014 53.6358ZM374.166 78.4725L243.624 88.3645L223.435 59.2626C223.435 59.2626 274.009 28.5739 318.461 19.3009C363.554 9.90411 386.354 12.4474 386.354 12.4474L374.166 78.4725ZM403.223 78.4725C403.223 78.4725 407.331 15.8685 408.962 13.6741C410.594 11.4796 530.018 27.6849 532.887 29.4292C535.757 31.1735 550.533 60.9394 550.893 62.2673L403.223 78.4725Z" fill="#263238"/>
<path d="M505.383 24.8829L506.419 68.5807H500.263V24.1514L505.383 24.8829Z" fill="#263238"/>
<path d="M218.427 57.6865C218.427 57.6865 218.314 57.9003 218.123 58.3505L217.279 60.3311C216.919 61.2089 216.412 62.278 215.94 63.5947L214.263 68.1861C210.903 78.3511 208.555 88.8227 207.252 99.4487C205.224 115.974 204.734 132.652 205.789 149.269C206.329 158.879 207.308 169.075 208.839 179.732C209.604 185.066 210.493 190.513 211.607 196.05C211.851 197.463 212.204 198.856 212.665 200.214C213.202 201.546 213.83 202.839 214.544 204.085C215.957 206.593 217.497 209.027 219.158 211.377L219.248 211.512H219.406L355.035 208.868L429.072 207.056C440.843 206.808 452.288 206.561 463.339 206.482C464.712 206.482 466.097 206.482 467.458 206.482C468.82 206.482 470.182 206.482 471.577 206.482C474.318 206.243 476.98 205.443 479.398 204.13C481.797 202.819 483.988 201.162 485.903 199.212C487.832 197.302 489.524 195.167 490.945 192.854C503.583 174.285 514.994 157.124 524.987 141.819C529.961 134.144 534.62 126.953 538.806 120.223C542.993 113.493 546.808 107.293 550.06 101.531C551.638 98.826 553.055 96.0302 554.303 93.158C554.573 92.4602 554.843 91.785 555.102 91.1098C555.361 90.4346 555.507 89.7369 555.709 89.0729C555.912 88.4089 556.126 87.745 556.238 87.081C556.351 86.417 556.463 85.7531 556.576 85.1116C557.675 77.9952 556.241 70.7188 552.525 64.5512C552.055 63.7581 551.521 63.0052 550.927 62.3005L551.32 62.8632C551.59 63.2346 551.973 63.8085 552.446 64.5962C556.066 70.7621 557.434 77.9931 556.317 85.0554C556.204 85.6968 556.092 86.3383 555.968 87.0022C555.844 87.6662 555.619 88.2964 555.439 88.9716C555.259 89.6468 555.09 90.3221 554.832 90.986C554.573 91.65 554.303 92.3252 554.033 93.0117C552.772 95.8634 551.348 98.6402 549.767 101.328C546.538 107.056 542.711 113.257 538.514 119.964C534.316 126.671 529.635 133.84 524.649 141.504C514.622 156.786 503.177 173.914 490.517 192.46C487.75 197.038 483.856 200.831 479.207 203.477C476.859 204.738 474.278 205.504 471.622 205.728C470.294 205.796 468.933 205.796 467.56 205.728C466.187 205.661 464.802 205.728 463.418 205.728C452.367 205.807 440.911 206.043 429.14 206.28L355.035 208.125L219.394 210.848L219.642 210.984C217.999 208.632 216.435 206.223 215.051 203.759C214.364 202.524 213.759 201.246 213.239 199.932C212.785 198.613 212.443 197.258 212.215 195.881C211.089 190.356 210.189 184.92 209.412 179.597C207.871 168.962 206.869 158.778 206.318 149.212C205.228 132.627 205.669 115.976 207.634 99.4713C208.898 88.8749 211.178 78.4246 214.443 68.2649C215.051 66.5319 215.568 65.0014 216.063 63.6735C216.559 62.3455 217.02 61.2652 217.369 60.3761C217.718 59.4871 217.988 58.8456 218.168 58.3842C218.348 57.9228 218.427 57.6865 218.427 57.6865Z" fill="#263238"/>
<path d="M387.67 84.876C387.514 85.2715 387.4 85.6828 387.333 86.1026C387.141 86.9241 386.905 88.1508 386.657 89.7263C386.173 92.8998 385.667 97.5026 385.341 103.231C384.62 114.664 384.913 130.498 385.127 147.953C385.341 165.407 385.746 181.23 386.05 192.675C386.218 198.301 386.353 202.949 386.443 206.179C386.511 207.732 386.556 208.959 386.601 209.859C386.601 210.253 386.601 210.557 386.657 210.827C386.714 211.097 386.657 211.153 386.657 211.142C386.668 211.033 386.668 210.924 386.657 210.815C386.657 210.557 386.657 210.241 386.657 209.859C386.657 208.959 386.657 207.721 386.657 206.179C386.657 202.904 386.545 198.301 386.466 192.618C386.286 181.117 386.027 165.339 385.746 147.908C385.464 130.476 385.172 114.642 385.746 103.219C386.005 97.5138 386.443 92.9111 386.871 89.715C387.074 88.1395 387.265 86.9129 387.411 86.0801C387.479 85.7087 387.524 85.3936 387.569 85.1461C387.615 85.0612 387.649 84.9703 387.67 84.876Z" fill="#263238"/>
<g opacity="0.2">
<path d="M489.021 165.046C489.021 165.046 428.026 192.404 416.997 194.981C405.969 197.558 227.182 199.032 227.182 199.032L223.491 190.525L410.02 189.208C410.02 189.208 484.902 159.285 489.021 165.046Z" fill="black"/>
</g>
<path d="M524.605 141.908C524.719 141.818 524.825 141.716 524.92 141.605C525.122 141.391 525.449 141.087 525.865 140.682C527.111 139.566 528.423 138.525 529.793 137.565C531.952 136.104 534.208 134.791 536.545 133.637C539.667 132.178 542.895 130.956 546.2 129.98C550.196 128.831 554.275 127.992 558.399 127.47C560.65 127.11 562.901 127.009 565.298 126.795C566.491 126.682 567.695 126.739 568.922 126.705C570.148 126.671 571.375 126.615 572.635 126.705C583.608 127.227 594.318 130.241 603.954 135.516C608.309 137.83 612.39 140.628 616.119 143.855L616.412 144.103L616.626 143.788C622.444 135.224 627.879 127.121 632.538 119.671C637.197 112.221 641.204 105.458 644.433 99.7524C647.663 94.0468 650.162 89.4328 651.883 86.248L653.842 82.5793C654.044 82.1854 654.202 81.8703 654.325 81.6115C654.39 81.5104 654.439 81.4004 654.472 81.2852C654.393 81.3746 654.325 81.4728 654.269 81.5777C654.134 81.8253 653.954 82.1292 653.729 82.5118C653.234 83.3671 652.604 84.5712 651.681 86.1129C649.858 89.2865 647.269 93.833 644.051 99.4935C640.832 105.154 636.77 111.873 632.043 119.3C627.317 126.727 621.915 134.785 616.063 143.349L616.569 143.293C612.818 140.033 608.706 137.212 604.314 134.886C594.594 129.556 583.778 126.53 572.703 126.041C571.442 125.917 570.182 126.041 568.955 126.041C567.729 126.041 566.502 126.041 565.309 126.153C562.923 126.378 560.594 126.491 558.377 126.874C554.229 127.415 550.13 128.288 546.122 129.484C542.799 130.493 539.56 131.757 536.432 133.266C534.084 134.455 531.827 135.816 529.68 137.34C528.319 138.328 527.03 139.411 525.82 140.581C525.415 141.008 525.111 141.323 524.92 141.56C524.801 141.662 524.695 141.779 524.605 141.908Z" fill="#263238"/>
<path d="M680.67 176.717C680.9 176.036 681.07 175.336 681.176 174.624C681.458 173.274 681.829 171.316 682.302 168.874C683.168 164.012 684.249 157.271 685.284 149.799C686.319 142.326 687.107 135.529 687.591 130.611C687.839 128.147 688.007 126.11 688.109 124.771C688.197 124.058 688.223 123.339 688.187 122.621C688.013 123.316 687.897 124.023 687.838 124.737C687.647 126.245 687.4 128.203 687.096 130.544C686.488 135.45 685.622 142.225 684.586 149.675C683.551 157.125 682.561 163.888 681.818 168.806L680.951 174.602C680.803 175.299 680.709 176.006 680.67 176.717Z" fill="#263238"/>
<path d="M625.73 181.623C625.961 181.654 626.196 181.654 626.427 181.623H628.498C630.231 181.623 632.752 181.567 635.869 181.455C642.093 181.241 650.702 180.712 660.155 179.71C669.608 178.709 678.16 177.46 684.305 176.334C687.377 175.794 689.853 175.31 691.564 174.95L693.533 174.522C693.765 174.48 693.991 174.412 694.208 174.32C693.973 174.28 693.734 174.28 693.499 174.32L691.519 174.624L684.226 175.749C678.07 176.706 669.54 177.898 660.087 178.9C650.634 179.902 642.081 180.509 635.847 180.869L628.487 181.263L626.484 181.398C626.223 181.435 625.968 181.511 625.73 181.623Z" fill="#263238"/>
<path d="M24.5494 149.437C24.5494 149.437 32.0556 130.79 31.8868 130.16C30.7614 126.784 26.3837 117.657 26.3837 117.657C23.6601 119.303 21.0302 121.099 18.5062 123.036C13.1952 127.068 8.29491 131.614 3.87646 136.608C1.52881 139.412 0.249132 142.956 0.264045 146.613V162.233L24.5494 149.437Z" fill="#EBEBEB"/>
<path d="M188.83 63.0545C188.684 63.2008 190.383 65.3052 192.341 68.0848C194.299 70.8645 195.807 73.1265 195.976 73.0139C196.145 72.9014 194.851 70.4031 192.892 67.6347C190.934 64.8663 188.965 62.9194 188.83 63.0545Z" fill="#263238"/>
<path d="M679.983 63.4824C679.983 63.4824 622.792 68.4678 623.423 69.8182C624.053 71.1687 679.983 89.5458 679.983 89.5458V63.4824Z" fill="#EBEBEB"/>
<path d="M680.164 90.2884C680.355 90.2884 680.512 84.3127 680.512 76.9415C680.512 69.5704 680.366 63.5947 680.175 63.5947C679.984 63.5947 679.826 69.5704 679.815 76.9415C679.803 84.3127 679.972 90.2884 680.164 90.2884Z" fill="#263238"/>
<path d="M227.126 198.976C227.126 198.976 227.362 198.976 227.812 198.976H229.804L237.491 198.875L265.726 198.391L358.906 196.512L410.178 195.431L413.126 195.364C414.103 195.37 415.08 195.321 416.052 195.217C417.949 194.829 419.785 194.185 421.51 193.304C424.965 191.808 428.341 190.412 431.638 189.062C438.188 186.395 444.321 183.986 449.914 181.792C461.112 177.403 470.171 173.791 476.338 171.146C479.444 169.829 481.841 168.783 483.45 168.051L485.284 167.207C485.701 167.016 485.903 166.903 485.903 166.903C485.903 166.903 485.678 166.971 485.262 167.14L483.394 167.905C481.728 168.603 479.331 169.604 476.236 170.876C470.024 173.43 460.965 176.975 449.745 181.297C444.119 183.469 437.997 185.798 431.436 188.488C428.161 189.827 424.774 191.211 421.307 192.697C419.629 193.553 417.842 194.177 415.996 194.554C415.047 194.656 414.092 194.701 413.137 194.689L410.2 194.745L358.906 195.814L265.726 197.918L237.491 198.639L229.816 198.864L227.812 198.954C227.583 198.949 227.354 198.957 227.126 198.976Z" fill="#263238"/>
<path d="M242.228 58.7998C244.693 64.1903 247.382 72.1466 246.887 80.3955C246.812 82.9094 245.787 85.3013 244.018 87.089C242.249 88.8767 239.868 89.9272 237.355 90.0287L213.835 90.2087C212.102 90.2104 210.428 89.5769 209.13 88.4282C207.832 87.2794 207 85.6949 206.791 83.9742C206.627 82.6681 206.834 81.3423 207.387 80.148C209.829 74.8363 211.889 75.8491 211.889 75.8491C211.889 75.8491 219.012 60.1728 229.894 54.2196C230.998 53.6677 232.203 53.3485 233.435 53.2817C234.667 53.215 235.899 53.4022 237.056 53.8317C238.212 54.2612 239.268 54.9238 240.158 55.7785C241.048 56.6331 241.753 57.6615 242.228 58.7998Z" fill="#21409A"/>
<path d="M217.887 90.1761C217.887 90.2774 216.953 89.996 215.748 89.0507C214.112 87.8187 212.926 86.0828 212.372 84.1104C211.948 82.1181 211.789 80.0786 211.9 78.0447C211.832 77.2101 211.901 76.3702 212.102 75.5576C212.363 76.3566 212.488 77.1932 212.474 78.0334C212.538 79.9961 212.768 81.9499 213.16 83.874C213.697 85.6887 214.734 87.3152 216.154 88.5668C217.155 89.6472 217.943 90.0635 217.887 90.1761Z" fill="#263238"/>
<path d="M216.109 72.5414C216.361 71.3926 216.802 70.2937 217.414 69.2891C218.717 66.8087 220.352 64.518 222.276 62.4806C224.156 60.4784 226.312 58.7543 228.679 57.3602C229.611 56.7261 230.647 56.2613 231.74 55.9873C231.875 56.2349 227.239 58.4406 222.85 63.0996C218.461 67.7586 216.345 72.6764 216.109 72.5414Z" fill="white"/>
<path d="M397.619 8.07031C397.524 8.31755 397.456 8.57405 397.416 8.83555C397.304 9.42074 397.157 10.1522 396.988 11.0863C396.628 13.0219 396.133 15.8128 395.548 19.2677C394.423 26.1774 392.858 35.7317 391.384 46.3327C389.91 56.9336 388.773 66.5892 388.199 73.5665C388.042 75.3108 387.94 76.9426 387.862 78.293C387.783 79.6434 387.704 80.8813 387.704 81.8604V84.1111C387.675 84.3729 387.675 84.6371 387.704 84.8989C387.766 84.6407 387.8 84.3766 387.805 84.1111C387.805 83.5147 387.895 82.7719 387.963 81.8604C388.031 80.9488 388.121 79.6884 388.244 78.293C388.368 76.8975 388.492 75.3333 388.683 73.589C389.381 66.623 390.585 57.0124 392.059 46.4227C393.534 35.833 394.985 26.2562 396.021 19.3239L397.247 11.12C397.36 10.2197 397.461 9.47701 397.551 8.86931C397.602 8.60614 397.625 8.33829 397.619 8.07031Z" fill="#455A64"/>
<g opacity="0.2">
<path d="M679.983 89.5451L651.703 71.6406L650.882 66.2051C639.909 67.3304 626.574 68.4558 623.423 69.8175C623.411 70.729 658.208 82.4891 679.983 89.5451Z" fill="black"/>
</g>
<g opacity="0.2">
<path d="M31.8865 130.16L16.7729 143.856L0.308838 146.613V162.233L24.5604 149.438C27.5539 142.01 30.266 135.067 31.8865 130.16Z" fill="black"/>
</g>
<path d="M32.0554 130.159C32.1878 130.13 32.3162 130.084 32.438 130.024L33.5634 129.541L37.7498 127.639L53.156 120.605C59.6606 117.668 67.4256 114.179 76.1134 110.477C80.4686 108.688 85.0488 106.752 89.8991 105.278C92.3411 104.614 94.907 104.22 97.4953 103.747L105.373 102.419C126.755 98.9419 146.055 96.0047 160.054 93.8103L176.62 91.2107L181.121 90.4792L182.246 90.2653L182.64 90.1641H182.235L181.054 90.2991L176.552 90.9068L159.953 93.2701C145.931 95.3295 126.575 98.1767 105.227 101.654L97.349 102.993C94.7607 103.466 92.1949 103.871 89.6965 104.546C84.7675 106.065 80.2097 108.012 75.8433 109.813C67.1555 113.515 59.413 117.049 52.9197 120.054C46.4263 123.058 41.2159 125.557 37.6147 127.301L33.4734 129.338L32.4043 129.889C32.2754 129.962 32.1578 130.053 32.0554 130.159Z" fill="#263238"/>
<path d="M569.9 252.994C599.454 252.994 623.411 227.434 623.411 195.904C623.411 164.374 599.454 138.814 569.9 138.814C540.347 138.814 516.389 164.374 516.389 195.904C516.389 227.434 540.347 252.994 569.9 252.994Z" fill="#263238"/>
<path d="M623.4 194.937C623.4 194.937 623.4 195.038 623.4 195.083C623.828 226.593 600.218 252.533 570.666 252.994C541.114 253.455 516.817 228.236 516.389 196.726V196.557L623.4 194.937Z" fill="#263238"/>
<path d="M607.465 195.33C607.769 217.466 591.192 235.663 570.452 235.989C549.711 236.315 532.64 218.613 532.347 196.489C532.054 174.364 548.62 156.144 569.36 155.829C590.101 155.514 607.172 173.194 607.465 195.33Z" fill="#FAFAFA"/>
<path d="M569.36 155.829C590.112 155.514 607.172 173.194 607.465 195.33L532.347 196.455C532.043 174.353 548.597 156.144 569.36 155.829Z" fill="#E0E0E0"/>
<path d="M592.79 195.555C592.97 209.059 582.876 220.121 570.283 220.313C557.69 220.504 547.247 209.734 547.067 196.252C546.887 182.771 556.981 171.674 569.574 171.494C582.167 171.314 592.61 182.073 592.79 195.555Z" fill="#263238"/>
<path d="M127.07 252.994C156.623 252.994 180.581 227.434 180.581 195.904C180.581 164.374 156.623 138.814 127.07 138.814C97.5165 138.814 73.5588 164.374 73.5588 195.904C73.5588 227.434 97.5165 252.994 127.07 252.994Z" fill="#263238"/>
<path d="M180.604 194.937C180.604 194.937 180.604 195.038 180.604 195.083C181.031 226.593 157.421 252.533 127.869 252.994C98.317 253.455 74.0204 228.236 73.5928 196.726C73.5928 196.726 73.5928 196.636 73.5928 196.58L180.604 194.937Z" fill="#263238"/>
<path d="M164.635 195.33C164.927 217.466 148.351 235.663 127.61 235.989C106.87 236.315 89.7979 218.613 89.5053 196.489C89.2127 174.364 105.778 156.144 126.53 155.829C147.281 155.514 164.331 173.194 164.635 195.33Z" fill="#FAFAFA"/>
<path d="M126.586 155.829C147.326 155.514 164.387 173.194 164.691 195.33L89.5614 196.455C89.2013 174.353 105.778 156.144 126.586 155.829Z" fill="#E0E0E0"/>
<path d="M149.948 195.555C150.128 209.059 140.034 220.121 127.441 220.313C114.848 220.504 104.416 209.734 104.225 196.252C104.034 182.771 114.139 171.674 126.732 171.494C139.325 171.314 149.768 182.073 149.948 195.555Z" fill="#263238"/>
<path d="M329.151 67.3876C329.241 67.2075 319.327 61.682 307.015 55.0086C294.704 48.3352 284.643 43.136 284.508 43.3161C284.373 43.4961 294.333 49.0329 306.655 55.6951C318.978 62.3572 329.061 67.5789 329.151 67.3876Z" fill="white"/>
<path d="M342.959 65.9471C343.049 65.767 333.63 60.3202 321.938 53.7369C310.245 47.1535 300.668 41.9993 300.556 42.1794C300.443 42.3594 309.885 47.8062 321.589 54.3896C333.293 60.973 342.869 66.1271 342.959 65.9471Z" fill="white"/>
<path d="M0.297598 162.232C0.399353 161.487 0.444499 160.734 0.432644 159.982C0.432644 158.395 0.500164 156.335 0.545179 153.848C0.590193 151.361 0.545176 148.143 0.691473 144.789C0.83777 141.436 3.29107 138.397 5.5643 135.381C7.81437 132.613 10.3533 130.093 13.138 127.864C15.6588 125.771 17.9996 123.97 19.969 122.473L24.6842 118.973C25.2876 118.58 25.8561 118.136 26.3835 117.646C25.7322 117.958 25.1139 118.335 24.5379 118.771C23.4126 119.514 21.7133 120.628 19.6989 122.068C17.6845 123.509 15.2987 125.275 12.7441 127.357C9.89597 129.586 7.30986 132.131 5.03538 134.942C3.85404 136.424 2.77495 137.984 1.80559 139.613C0.829457 141.18 0.228637 142.952 0.0500162 144.789C-0.0625202 148.267 0.0500162 151.305 0.0500162 153.905C0.0500162 156.504 0.128798 158.406 0.162559 160.038C0.139537 160.772 0.18474 161.507 0.297598 162.232Z" fill="#263238"/>
</svg>
