<svg xmlns="http://www.w3.org/2000/svg" width="1024" height="1024" viewBox="0 0 1024 1024">
<g>
<path d="M 578.25 383.02 L 569.00 383.00 L 587.00 383.00 L 587.00 520.00 L 578.00 520.00 C584.66,519.99 584.81,519.82 585.49,517.25 C586.77,512.41 587.32,391.35 586.08,387.79 C585.23,385.36 585.27,384.45 586.24,383.83 C586.93,383.39 583.34,383.02 578.25,383.02 ZM 813.58 358.96 C814.39,358.87 815.00,358.40 815.00,357.83 C815.00,357.57 815.81,356.10 817.17,353.86 C816.42,355.11 816.00,355.90 816.00,356.05 C816.00,356.57 817.60,357.00 819.56,357.00 C821.68,357.00 822.87,357.40 822.50,358.00 C822.16,358.55 819.55,358.99 816.69,358.97 L 813.58 358.96 ZM 877.00 445.44 C877.00,443.06 879.53,439.20 880.47,440.14 C880.82,440.49 880.19,442.29 879.06,444.14 C877.41,446.84 877.01,447.10 877.00,445.44 ZM 898.57 490.43 C896.36,488.21 896.61,487.87 899.50,489.18 C900.88,489.81 902.00,490.70 902.00,491.16 C902.00,492.50 900.28,492.13 898.57,490.43 ZM 886.23 428.00 C887.40,426.12 889.00,425.30 889.00,426.57 C889.00,427.32 886.31,430.00 885.56,430.00 C885.24,430.00 885.55,429.10 886.23,428.00 ZM 808.00 353.01 C810.02,356.44 811.99,358.73 813.09,358.95 L 811.50 358.95 L 808.00 353.01 ZM 827.71 337.48 C832.79,329.64 837.29,322.05 838.18,319.74 C839.14,317.23 839.69,314.68 839.85,312.16 C839.69,314.68 839.14,317.23 838.18,319.74 C837.27,322.12 832.73,329.78 827.71,337.48 Z" fill="rgba(0,0,0,1)"/>
<path d="M 307.54 742.75 C307.32,742.06 306.94,739.92 306.71,738.00 C305.84,730.93 300.07,707.23 296.97,698.00 C287.25,669.12 269.99,651.69 245.73,646.27 C237.88,644.51 201.34,643.81 193.25,645.26 C190.52,645.75 189.00,645.66 189.00,645.00 C189.00,643.88 241.71,617.76 261.50,609.06 C264.25,607.85 268.75,605.80 271.50,604.50 C274.25,603.20 281.45,600.27 287.50,597.99 C293.55,595.71 299.73,593.18 301.24,592.37 C303.89,590.95 313.36,587.28 321.50,584.52 C323.70,583.77 329.33,581.75 334.00,580.02 C338.67,578.30 344.08,576.50 346.00,576.02 C347.92,575.55 351.98,574.29 355.00,573.21 C360.98,571.08 370.24,568.27 382.00,565.00 C386.12,563.85 392.42,562.06 396.00,561.03 C409.37,557.17 423.94,553.88 445.00,549.97 C450.77,548.90 458.65,547.35 462.50,546.51 C466.35,545.68 471.52,544.99 474.00,544.98 C476.47,544.97 482.10,544.28 486.50,543.46 C490.90,542.63 500.12,541.53 507.00,541.00 C513.88,540.48 526.03,539.38 534.00,538.56 C557.28,536.15 631.29,536.40 670.50,539.01 C687.55,540.15 707.12,541.76 714.00,542.58 C720.88,543.41 732.35,544.51 739.50,545.04 C746.65,545.56 755.42,546.45 759.00,547.01 C762.58,547.57 772.47,548.92 781.00,550.00 C823.69,555.43 849.00,559.22 849.00,560.19 C849.00,560.63 832.91,561.00 813.25,560.99 C748.83,560.97 699.24,563.29 649.50,568.65 C641.80,569.48 631.45,570.58 626.50,571.11 C621.55,571.63 613.35,572.94 608.27,574.03 C603.19,575.11 597.79,576.00 596.27,575.99 C593.67,575.98 577.39,579.38 565.00,582.51 C561.97,583.28 554.33,585.10 548.00,586.56 C537.54,588.98 529.57,591.32 517.00,595.66 C514.53,596.51 511.15,597.57 509.50,598.00 C496.37,601.47 447.96,623.48 436.75,631.08 C434.41,632.67 432.18,633.97 431.79,633.98 C431.40,633.99 426.00,637.35 419.79,641.45 C390.16,660.99 373.75,674.41 347.56,700.52 C331.09,716.94 320.21,728.86 313.30,738.05 C308.54,744.39 308.16,744.70 307.54,742.75 ZM 637.50 518.55 C621.72,515.37 611.03,504.96 605.40,487.29 C599.13,467.60 605.56,445.60 620.98,433.97 C628.94,427.97 635.15,426.05 646.72,426.02 C655.51,426.00 657.76,426.36 662.72,428.53 C665.90,429.93 668.95,431.63 669.50,432.32 C670.63,433.74 676.52,438.00 677.35,438.00 C677.65,438.00 678.04,435.42 678.20,432.27 L 678.50 426.54 L 687.00 426.87 C691.99,427.06 695.80,427.67 696.23,428.35 C697.12,429.73 697.24,512.52 696.36,515.79 C695.77,517.98 695.38,518.06 687.12,517.79 L 678.50 517.50 L 678.20 512.25 C678.03,509.36 677.55,507.00 677.14,507.00 C676.72,507.00 675.43,507.88 674.28,508.95 C669.72,513.20 662.04,517.02 655.11,518.48 C646.86,520.21 645.75,520.22 637.50,518.55 ZM 487.00 518.48 C475.01,515.10 464.85,506.20 459.29,494.20 C456.81,488.84 456.65,487.59 456.64,473.50 C456.63,458.62 456.66,458.45 459.89,451.70 C464.54,441.99 472.76,433.91 482.47,429.48 C489.26,426.39 491.05,426.00 498.53,426.00 C508.43,426.00 515.53,428.61 523.18,435.06 C529.20,440.13 530.41,440.13 529.73,435.04 C529.01,429.65 530.30,428.85 539.16,429.20 L 546.50 429.50 L 546.50 517.50 L 530.50 517.50 L 530.20 512.25 C530.03,509.36 529.65,507.00 529.34,507.00 C529.04,507.00 527.15,508.27 525.14,509.82 C512.89,519.30 500.16,522.19 487.00,518.48 ZM 777.64 514.97 C769.25,510.81 765.56,507.71 761.02,501.03 C754.07,490.80 752.73,486.18 752.73,472.50 C752.73,462.67 753.11,459.57 754.81,455.36 C757.70,448.19 763.27,439.77 767.19,436.62 C769.01,435.16 771.04,433.53 771.71,432.98 C772.37,432.44 773.38,432.00 773.96,432.00 C774.53,432.00 775.00,431.63 775.00,431.17 C775.00,430.71 777.33,429.25 780.17,427.92 C784.65,425.82 786.76,425.51 795.92,425.55 C805.49,425.59 807.03,425.86 812.00,428.40 C815.03,429.94 819.40,433.04 821.73,435.29 C824.05,437.54 826.17,439.17 826.42,438.91 C826.67,438.66 826.99,436.08 827.12,433.19 L 827.36 427.92 L 835.43 428.21 L 843.50 428.50 L 843.50 516.50 L 835.50 516.50 C829.83,516.50 827.46,516.14 827.38,515.25 C827.31,514.56 827.19,512.20 827.12,510.00 C826.98,505.29 825.85,505.01 822.08,508.75 C820.55,510.26 816.56,512.96 813.21,514.75 C807.29,517.90 806.76,518.00 795.31,517.94 C784.34,517.89 783.08,517.68 777.64,514.97 ZM 210.98 518.51 C205.52,517.01 196.00,512.30 196.00,511.10 C196.00,510.62 195.17,510.02 194.15,509.75 C188.82,508.36 177.69,489.95 177.82,482.75 C177.84,481.24 177.45,480.00 176.93,480.00 C176.42,480.00 176.00,476.40 176.00,472.00 C176.00,467.39 176.42,464.00 176.99,464.00 C177.53,464.00 177.92,462.99 177.85,461.75 C177.26,451.71 191.34,434.73 204.32,429.82 C207.17,428.74 210.69,427.41 212.15,426.86 C216.91,425.08 235.77,426.32 242.35,428.85 C253.78,433.23 262.56,441.39 268.28,452.96 C271.35,459.16 271.48,459.90 271.45,471.46 C271.42,482.09 271.12,484.21 268.86,489.54 C262.37,504.89 251.54,514.24 235.20,518.59 C228.88,520.27 217.26,520.23 210.98,518.51 ZM 235.36 501.97 C250.13,496.44 257.87,477.41 251.86,461.36 C249.01,453.75 239.97,444.73 233.55,443.12 C227.71,441.65 218.40,441.77 213.91,443.37 C201.93,447.65 192.97,462.47 194.32,475.75 C194.94,481.87 198.47,490.06 202.55,494.89 C209.52,503.14 223.93,506.24 235.36,501.97 ZM 808.18 501.45 C814.45,499.32 822.26,491.77 824.89,485.31 C828.93,475.38 827.14,459.23 821.27,452.75 C820.40,451.79 820.02,451.00 820.42,451.00 C822.43,451.00 811.77,444.11 807.53,442.66 C793.88,438.02 779.12,444.25 772.70,457.36 C770.37,462.12 770.00,464.12 770.00,471.97 C770.00,480.01 770.33,481.71 772.90,486.78 C779.44,499.69 794.71,506.04 808.18,501.45 ZM 512.28 501.79 C523.21,497.90 530.00,487.04 530.00,473.45 C530.00,463.75 527.51,456.77 522.03,451.09 C516.52,445.38 511.57,442.95 504.05,442.27 C495.45,441.49 488.46,443.90 482.40,449.72 C474.99,456.87 473.55,460.55 473.52,472.50 C473.50,481.05 473.85,483.20 475.89,487.36 C480.15,496.02 486.16,500.76 496.23,503.43 C502.07,504.97 503.86,504.79 512.28,501.79 ZM 658.88 501.35 C666.30,498.95 671.06,494.40 674.94,485.98 C677.99,479.37 678.21,478.21 677.79,471.15 C676.62,451.75 661.55,439.14 644.02,442.90 C638.20,444.15 630.91,449.20 627.33,454.47 C622.28,461.90 621.61,478.43 625.99,487.49 C632.05,500.00 645.50,505.67 658.88,501.35 ZM 717.00 381.00 L 735.00 381.00 L 735.00 518.00 L 717.00 518.00 L 717.00 381.00 ZM 423.00 380.92 L 440.50 381.50 L 440.76 449.75 L 441.01 518.00 L 423.00 518.00 L 423.00 380.92 ZM 569.00 383.00 L 578.25 383.02 C583.34,383.02 586.93,383.39 586.24,383.83 C585.27,384.45 585.23,385.36 586.08,387.79 C587.32,391.35 586.77,512.41 585.49,517.25 C584.78,519.96 584.64,520.00 576.88,520.00 L 569.00 520.00 L 569.00 383.00 ZM 376.92 605.10 C380.54,603.50 384.96,601.65 386.75,600.98 C388.83,600.20 390.00,599.08 390.00,597.88 C390.00,595.48 388.73,595.52 381.99,598.10 C378.97,599.26 374.70,600.87 372.50,601.67 C367.79,603.39 365.49,605.37 366.44,606.90 C367.50,608.62 369.84,608.22 376.92,605.10 ZM 473.50 571.95 C482.28,569.60 485.18,567.78 483.24,565.84 C482.35,564.95 481.13,564.94 478.28,565.78 C476.20,566.40 471.26,567.83 467.30,568.96 C459.97,571.06 458.35,572.14 459.56,574.10 C460.31,575.31 461.85,575.07 473.50,571.95 ZM 522.50 561.04 C529.74,559.55 532.00,558.44 532.00,556.36 C532.00,554.60 531.45,554.64 517.06,557.37 C508.29,559.04 506.27,560.01 507.50,562.00 C508.31,563.31 512.94,563.01 522.50,561.04 ZM 332.12 623.95 C344.15,618.76 344.44,618.60 344.82,616.64 C345.35,613.95 341.99,614.67 331.72,619.47 C322.02,624.01 320.39,625.20 321.50,627.00 C321.69,627.31 321.79,627.57 321.98,627.71 C322.56,628.15 324.01,627.45 332.12,623.95 ZM 579.94 555.06 C581.13,554.31 581.15,553.88 580.06,552.58 C578.66,550.88 572.31,550.63 562.01,551.85 C557.90,552.34 556.44,552.94 556.19,554.25 C555.89,555.83 556.93,556.00 567.18,555.98 C573.40,555.98 579.15,555.56 579.94,555.06 ZM 289.71 644.47 C294.87,641.98 299.35,639.25 299.67,638.41 C301.08,634.75 298.06,635.21 288.21,640.14 C280.71,643.89 278.00,645.74 278.00,647.12 C278.00,649.81 279.25,649.53 289.71,644.47 ZM 419.50 588.54 C430.86,585.27 435.50,583.27 435.85,581.50 C436.16,579.94 435.69,579.79 432.11,580.37 C429.87,580.73 426.56,581.68 424.76,582.48 C422.97,583.29 419.59,584.43 417.25,585.01 C414.06,585.81 413.00,586.56 413.00,588.04 C413.00,590.37 413.10,590.38 419.50,588.54 ZM 874.00 463.00 C874.00,461.90 873.97,460.67 873.92,460.27 C873.88,459.88 874.33,459.39 874.92,459.19 C875.54,458.99 876.00,460.16 876.00,461.92 C876.00,463.61 875.55,465.00 875.00,465.00 C874.45,465.00 874.00,464.10 874.00,463.00 Z" fill="rgba(13,44,99,1)"/>
<path d="M 340.18 556.50 C338.54,555.12 333.23,549.38 328.38,543.75 C323.53,538.11 318.12,531.92 316.36,530.00 C307.93,520.76 296.78,506.63 292.26,499.45 C289.26,494.68 285.42,484.71 284.09,478.20 C281.87,467.38 283.46,451.53 287.36,445.57 C288.26,444.20 289.00,442.53 289.00,441.87 C289.00,440.21 299.44,426.49 302.22,424.50 C303.48,423.60 306.85,421.14 309.73,419.03 C314.70,415.37 316.79,414.44 328.50,410.62 C336.24,408.10 351.63,408.45 361.00,411.36 C372.32,414.89 376.60,417.48 385.07,425.95 C393.54,434.42 396.68,439.73 400.64,452.25 C402.90,459.39 403.17,461.64 402.68,469.00 C401.62,485.11 396.86,495.72 380.75,518.00 C370.80,531.76 346.66,559.00 344.42,559.00 C343.73,559.00 341.81,557.87 340.18,556.50 ZM 403.25 372.28 C402.48,372.01 402.00,369.95 402.00,366.97 C402.00,349.65 411.44,334.74 433.75,316.83 C439.61,312.13 441.61,309.00 438.75,309.00 C435.89,309.00 422.01,312.26 415.50,314.45 C402.75,318.76 389.16,326.24 379.71,334.17 C375.15,337.99 372.00,338.66 372.00,335.81 C372.00,333.17 383.85,317.14 391.50,309.45 C400.34,300.56 407.75,296.30 423.00,291.36 C431.15,288.71 432.34,288.60 452.00,288.60 C467.95,288.61 474.16,289.00 480.00,290.36 C484.12,291.32 493.58,292.97 501.00,294.03 C508.42,295.10 520.12,296.88 527.00,298.00 C533.88,299.12 544.67,300.71 551.00,301.53 C557.33,302.35 567.90,303.92 574.50,305.01 C609.03,310.75 649.64,313.96 696.50,314.65 C731.40,315.17 732.67,315.26 738.00,317.53 C741.03,318.82 744.62,320.18 746.00,320.56 C749.78,321.59 765.71,329.71 770.67,333.12 C776.87,337.39 782.79,343.75 785.44,349.00 C790.17,358.38 792.35,371.74 789.32,372.73 C788.68,372.94 786.22,370.50 783.86,367.31 C779.42,361.29 764.66,345.10 762.35,343.71 C760.99,342.89 760.10,343.33 742.80,353.37 C737.47,356.47 732.63,359.00 732.05,359.00 C731.36,359.00 731.00,353.98 731.00,344.47 C731.00,334.75 731.06,330.69 729.23,329.46 C727.85,328.54 725.41,329.21 721.07,330.30 C714.45,331.96 700.00,334.90 688.00,337.03 C684.08,337.73 670.78,338.16 654.50,338.12 C629.35,338.06 615.49,337.12 594.50,334.04 C591.20,333.56 585.35,332.88 581.50,332.53 C577.65,332.19 569.78,331.25 564.00,330.46 C522.62,324.77 483.52,323.42 465.91,327.07 C445.31,331.34 423.35,346.27 411.29,364.22 C406.23,371.75 405.05,372.93 403.25,372.28 ZM 346.42 318.58 C343.90,316.81 328.06,311.83 317.65,309.52 C290.81,303.58 245.64,301.20 223.50,304.56 C218.00,305.39 210.31,306.48 206.42,306.97 C202.52,307.46 196.34,308.66 192.67,309.64 C180.63,312.85 181.63,307.74 194.45,300.56 C206.08,294.06 221.80,289.47 240.50,287.12 C249.85,285.95 259.19,284.99 261.25,284.99 C263.39,285.00 269.17,283.25 274.75,280.91 C287.46,275.58 292.69,273.53 303.00,269.85 C307.67,268.18 314.20,265.78 317.50,264.52 C323.01,262.41 327.78,260.97 346.00,255.92 C357.88,252.63 392.82,245.43 401.50,244.49 C404.80,244.13 411.33,243.09 416.00,242.17 C428.71,239.67 528.35,239.68 541.00,242.18 C545.67,243.10 551.97,244.17 555.00,244.55 C558.03,244.94 561.62,245.68 563.00,246.21 C564.38,246.73 569.33,248.20 574.00,249.48 C584.48,252.33 586.57,253.08 601.25,259.31 C607.71,262.05 613.51,264.90 614.12,265.65 C614.74,266.39 615.71,267.00 616.29,267.00 C617.36,267.00 630.55,274.92 635.00,278.23 C636.38,279.25 640.17,282.10 643.42,284.55 C646.68,287.00 650.08,289.00 650.97,289.00 C651.86,289.00 654.51,287.04 656.86,284.64 C659.21,282.25 663.21,279.25 665.76,277.98 L 670.38 275.67 L 673.94 279.69 C677.86,284.11 680.56,292.54 678.77,294.75 C677.98,295.73 676.59,295.34 672.50,293.00 C669.62,291.35 666.48,290.00 665.53,290.00 C663.71,290.00 658.56,294.79 655.87,298.98 C654.41,301.26 654.07,301.35 651.39,300.16 C647.92,298.60 641.45,294.41 638.00,291.48 C633.27,287.45 615.25,277.60 605.50,273.71 C583.97,265.11 583.35,265.19 587.36,276.00 C588.81,279.91 590.00,283.99 590.00,285.06 C590.00,288.63 586.57,287.11 582.17,281.61 C579.81,278.64 574.51,272.96 570.41,268.97 L 562.94 261.74 L 550.22 262.26 C538.88,262.73 521.48,264.82 490.50,269.43 C485.00,270.24 478.02,271.18 475.00,271.51 C467.92,272.27 449.01,275.58 437.50,278.08 C432.55,279.15 426.25,280.28 423.50,280.59 C420.75,280.91 415.20,281.85 411.17,282.70 C403.83,284.24 400.85,283.67 402.48,281.03 C403.17,279.91 413.10,275.00 414.66,275.00 C415.43,275.00 428.31,270.04 438.50,265.83 C441.25,264.69 445.75,262.94 448.50,261.95 C469.00,254.52 469.67,254.18 468.66,251.57 C468.24,250.47 466.62,249.96 463.28,249.88 C460.65,249.82 457.15,249.46 455.50,249.09 C453.85,248.72 450.70,248.96 448.50,249.62 C444.58,250.80 416.92,262.87 412.00,265.56 C410.62,266.31 404.10,269.23 397.50,272.05 C390.90,274.87 384.99,277.60 384.36,278.12 C383.73,278.64 380.36,280.20 376.86,281.59 C371.47,283.73 367.98,284.25 354.00,285.01 C344.92,285.49 333.11,286.21 327.75,286.60 C320.32,287.13 318.00,287.01 318.00,286.07 C318.00,285.40 320.25,282.26 323.00,279.09 C332.72,267.92 330.27,268.12 300.00,280.97 C295.88,282.73 291.71,284.40 290.75,284.70 C289.79,284.99 289.00,285.98 289.00,286.89 C289.00,288.60 296.65,291.65 308.00,294.46 C313.20,295.75 318.51,297.15 336.00,301.85 C340.12,302.95 345.47,304.57 347.88,305.43 C353.62,307.49 357.77,307.41 364.21,305.12 C383.23,298.37 388.17,297.97 382.94,303.59 C380.25,306.48 353.41,320.00 350.36,320.00 C349.31,320.00 347.54,319.36 346.42,318.58 ZM 355.83 503.37 C369.36,498.03 375.55,491.82 379.86,479.25 C384.64,465.30 380.69,450.11 369.50,439.43 C366.28,436.36 363.19,434.63 355.27,431.48 C348.42,428.76 335.08,429.71 327.81,433.43 C315.38,439.82 309.10,447.68 306.45,460.17 C305.16,466.29 305.10,468.57 306.11,474.00 C310.58,497.98 334.16,511.91 355.83,503.37 ZM 334.25 491.97 C333.01,491.47 332.00,490.60 332.00,490.03 C332.00,489.46 331.37,489.00 330.60,489.00 C328.93,489.00 323.67,483.19 321.43,478.87 C318.91,473.99 318.49,466.05 320.45,460.15 C322.41,454.25 329.20,446.65 334.49,444.44 C338.33,442.84 348.61,442.52 352.18,443.89 C356.17,445.42 364.21,453.24 366.12,457.46 C370.12,466.25 367.43,479.65 360.38,486.15 C354.46,491.60 350.97,493.00 343.50,492.93 C339.65,492.90 335.49,492.47 334.25,491.97 ZM 905.00 491.61 C905.00,490.85 901.80,485.39 897.89,479.48 C893.99,473.57 890.16,467.24 889.39,465.40 C886.13,457.59 889.24,447.79 896.62,442.66 C901.96,438.95 910.57,438.63 916.16,441.93 C923.36,446.18 927.33,455.51 925.22,463.18 C924.14,467.07 907.34,493.00 905.90,493.00 C905.40,493.00 905.00,492.37 905.00,491.61 ZM 279.93 346.12 C281.02,344.10 292.00,333.62 298.00,328.89 C306.38,322.28 315.60,318.89 321.20,320.36 C323.74,321.03 330.97,327.44 335.25,332.82 C339.13,337.69 339.07,343.10 335.10,345.93 C331.60,348.42 331.20,348.44 327.08,346.39 C316.53,341.13 301.99,340.56 288.23,344.87 C280.72,347.23 279.22,347.46 279.93,346.12 ZM 260.00 335.21 C260.00,333.67 252.44,326.32 248.50,324.04 C244.06,321.47 224.02,315.00 220.49,315.00 C219.26,315.00 217.69,314.33 217.01,313.51 C214.89,310.96 218.15,310.62 244.97,310.56 C271.21,310.51 278.43,311.35 279.67,314.58 C280.42,316.54 276.31,322.32 268.82,329.86 C263.33,335.38 260.00,337.40 260.00,335.21 ZM 230.00 368.37 C228.07,368.14 223.12,367.33 219.00,366.57 C214.88,365.80 209.70,364.89 207.50,364.53 C202.96,363.80 195.14,361.14 193.21,359.67 C190.47,357.58 193.75,356.73 200.18,357.86 C203.65,358.48 217.27,359.93 230.44,361.09 C251.00,362.91 256.16,363.05 266.94,362.11 C292.94,359.85 299.00,359.71 299.00,361.37 C299.00,363.54 297.79,364.06 287.61,366.24 C280.45,367.78 273.70,368.26 256.00,368.49 C243.62,368.65 231.93,368.60 230.00,368.37 ZM 910.92 466.88 C914.48,465.64 916.00,462.79 916.00,457.39 C916.00,452.26 912.37,449.00 906.63,449.00 C902.85,449.00 901.77,449.48 899.48,452.20 C897.23,454.88 896.88,456.06 897.33,459.45 C897.69,462.12 898.77,464.26 900.49,465.75 C903.41,468.25 906.13,468.55 910.92,466.88 Z" fill="rgba(15,149,7,1)"/>
<path d="M 359.56 731.35 L 351.85 721.71 L 353.86 719.69 L 355.88 717.68 L 364.98 722.33 L 374.09 726.98 L 373.43 723.24 C373.06,721.18 371.89,716.84 370.82,713.59 C368.91,707.81 368.91,707.64 370.75,705.80 C371.79,704.77 373.28,704.19 374.07,704.52 C376.55,705.57 389.22,722.99 388.62,724.54 C387.57,727.28 384.50,725.96 381.50,721.48 C376.62,714.20 375.79,715.48 379.08,725.24 C381.03,731.02 381.05,731.49 379.45,732.66 C378.04,733.69 376.96,733.48 373.12,731.44 C370.58,730.09 367.73,728.44 366.80,727.78 C363.30,725.30 363.84,728.14 367.83,733.23 C371.56,738.00 371.80,738.62 370.29,739.75 C369.37,740.44 368.32,741.00 367.95,741.00 C367.58,741.00 363.81,736.66 359.56,731.35 ZM 388.27 714.47 C385.10,711.30 384.80,710.53 385.29,706.89 C385.92,702.17 388.19,699.28 392.79,697.33 C395.65,696.12 396.50,696.14 399.37,697.51 C403.53,699.48 407.32,705.89 406.43,709.43 C406.08,710.83 404.25,713.33 402.36,714.99 C397.46,719.29 392.93,719.13 388.27,714.47 ZM 400.37 710.89 C402.83,707.37 399.62,702.00 395.05,702.00 C391.74,702.00 390.00,703.68 390.00,706.87 C390.00,712.43 397.31,715.26 400.37,710.89 ZM 411.17 704.69 C409.98,703.41 409.00,702.10 409.00,701.77 C409.00,701.43 406.75,697.89 404.00,693.90 C401.25,689.91 399.00,685.85 399.00,684.88 C399.00,681.56 401.26,681.64 404.05,685.06 L 406.80 688.43 L 410.09 685.22 C414.45,680.95 419.49,680.77 423.18,684.75 C426.69,688.54 428.29,693.57 426.85,696.35 C425.56,698.86 420.99,702.91 419.40,702.96 C418.80,702.98 417.50,703.90 416.50,705.00 C414.21,707.53 413.82,707.51 411.17,704.69 ZM 420.07 697.96 C421.26,697.33 422.00,695.88 422.00,694.19 C422.00,687.19 414.99,684.36 411.65,690.01 C409.93,692.93 409.94,693.10 412.01,696.01 C414.22,699.12 416.76,699.73 420.07,697.96 ZM 431.39 690.31 C430.43,688.77 428.38,685.51 426.82,683.08 C423.56,677.97 423.38,676.76 425.65,674.88 C427.06,673.71 427.45,673.77 428.40,675.35 C429.00,676.35 431.41,680.18 433.74,683.84 C438.30,690.99 438.52,692.33 435.23,692.81 C433.80,693.02 432.57,692.22 431.39,690.31 ZM 437.10 679.75 C434.75,675.76 431.93,671.03 430.82,669.23 C428.54,665.56 428.98,663.00 431.88,663.00 C433.31,663.00 435.46,665.86 439.94,673.71 C446.05,684.43 446.68,687.00 443.21,687.00 C441.97,687.00 439.95,684.61 437.10,679.75 ZM 451.24 682.15 C449.13,680.85 441.15,666.78 441.70,665.34 C442.68,662.78 445.96,663.97 448.34,667.75 C453.70,676.25 455.26,680.17 453.84,681.59 C453.08,682.34 451.95,682.59 451.24,682.15 ZM 478.52 673.16 C477.90,668.66 477.25,667.68 471.41,662.46 C467.87,659.29 464.24,656.16 463.33,655.50 C462.43,654.84 462.01,653.79 462.41,653.15 C463.84,650.83 467.66,652.05 471.82,656.18 C476.96,661.26 478.21,660.50 476.86,653.14 C475.71,646.93 476.18,645.00 478.86,645.00 C480.53,645.00 480.93,646.22 481.98,654.75 C483.57,667.62 483.09,677.37 480.85,677.79 C479.57,678.04 479.05,677.01 478.52,673.16 ZM 458.35 672.41 C456.78,670.43 454.04,667.31 452.25,665.47 C449.65,662.81 449.00,661.31 449.00,658.04 C449.00,653.08 451.51,651.38 453.78,654.80 C454.95,656.56 455.58,656.76 457.21,655.89 C460.46,654.15 461.86,656.45 459.27,659.24 L 457.16 661.50 L 459.74 665.84 C462.04,669.73 462.62,670.13 465.19,669.61 C469.07,668.84 470.02,671.33 466.86,673.97 C463.45,676.81 461.56,676.46 458.35,672.41 ZM 419.67 672.33 C418.37,671.04 419.03,669.06 421.12,667.94 C422.79,667.04 423.55,667.13 424.78,668.35 C426.05,669.63 426.10,670.17 425.04,671.45 C423.72,673.04 420.85,673.52 419.67,672.33 ZM 438.00 660.50 C436.47,658.65 438.25,656.00 441.02,656.00 C443.44,656.00 444.25,658.61 442.39,660.47 C440.47,662.39 439.57,662.39 438.00,660.50 ZM 497.08 650.48 C495.94,647.44 493.86,642.68 492.45,639.90 C490.43,635.92 490.14,634.54 491.07,633.42 C493.08,630.99 495.01,631.80 502.00,638.00 C505.72,641.30 509.04,644.00 509.38,644.00 C509.72,644.00 510.00,639.82 510.00,634.70 C510.00,628.80 510.44,624.96 511.20,624.20 C513.27,622.13 515.98,622.84 517.12,625.75 C517.71,627.26 519.76,631.78 521.66,635.79 C525.33,643.49 525.60,646.26 522.72,646.82 C521.41,647.07 520.32,645.71 518.49,641.58 C515.11,633.94 513.84,634.39 514.20,643.11 C514.45,648.98 514.20,650.43 512.77,651.35 C511.32,652.29 510.15,651.59 505.52,647.02 C499.56,641.14 498.34,641.82 502.00,649.00 C504.68,654.25 504.57,656.00 501.57,656.00 C499.54,656.00 498.80,655.09 497.08,650.48 ZM 528.97 639.13 C521.66,631.81 525.58,621.00 535.56,621.00 C539.08,621.00 540.27,621.53 542.37,624.03 C543.77,625.69 544.70,627.60 544.44,628.28 C544.18,628.95 541.28,630.62 537.99,632.00 C531.80,634.59 530.51,636.39 534.05,637.52 C535.93,638.11 537.14,637.55 542.59,633.54 C543.31,633.00 544.19,632.86 544.54,633.21 C545.83,634.50 543.74,638.19 540.66,640.07 C536.12,642.83 532.38,642.53 528.97,639.13 ZM 537.82 626.59 C538.06,625.42 537.36,625.00 535.20,625.00 C531.89,625.00 529.48,627.21 530.35,629.46 C530.84,630.74 531.35,630.76 534.21,629.56 C536.02,628.80 537.65,627.46 537.82,626.59 ZM 551.87 632.75 C544.65,626.78 545.79,616.40 554.04,612.98 C556.67,611.89 557.66,611.94 560.52,613.31 C564.66,615.28 567.79,619.61 566.22,621.18 C565.63,621.77 562.75,623.07 559.82,624.06 C553.79,626.09 551.99,629.00 556.77,629.00 C558.42,629.00 560.48,628.13 561.50,627.00 C563.61,624.67 567.00,624.34 567.00,626.47 C567.00,627.27 565.67,629.30 564.03,630.97 C561.75,633.30 560.19,634.00 557.22,634.00 C555.11,634.00 552.70,633.44 551.87,632.75 ZM 556.45 621.46 C560.51,619.76 560.72,617.67 556.87,617.20 C554.15,616.88 550.37,620.18 551.46,621.94 C552.28,623.27 552.06,623.29 556.45,621.46 ZM 573.92 624.08 C572.29,622.44 571.00,620.08 571.00,618.71 C571.00,617.37 570.07,615.09 568.94,613.65 C566.26,610.25 566.51,602.70 569.32,602.17 C570.50,601.95 571.33,602.56 571.69,603.91 C572.22,605.94 573.13,606.42 575.76,606.07 C577.85,605.80 578.51,609.13 576.58,610.21 C575.18,611.00 574.99,611.97 575.54,615.34 C576.39,620.47 577.55,622.00 580.62,622.00 C583.84,622.00 583.71,624.78 580.43,626.02 C577.01,627.33 577.25,627.40 573.92,624.08 ZM 585.48 620.98 C582.69,617.89 584.88,616.19 589.49,617.86 C593.17,619.19 595.00,618.76 595.00,616.57 C595.00,615.72 593.18,615.08 589.83,614.76 C582.04,614.01 579.59,609.32 584.45,604.45 C588.43,600.48 597.00,601.38 597.00,605.78 C597.00,606.75 595.90,607.07 593.22,606.88 C591.14,606.73 588.87,606.96 588.17,607.39 C585.83,608.84 588.96,611.00 593.42,611.00 C598.29,611.00 600.00,612.34 600.00,616.13 C600.00,622.03 589.58,625.51 585.48,620.98 ZM 618.50 613.98 C612.23,611.20 609.56,605.48 611.09,598.12 C612.81,589.93 622.44,585.64 629.43,589.96 C634.38,593.01 634.28,595.51 629.25,594.54 C627.19,594.14 624.29,593.58 622.81,593.30 C620.82,592.92 619.45,593.46 617.56,595.35 C613.41,599.50 614.59,606.14 620.06,609.37 C622.62,610.89 623.25,610.92 625.72,609.64 C627.25,608.85 629.36,607.26 630.41,606.10 C632.51,603.78 636.00,603.27 636.00,605.28 C636.00,607.37 633.23,610.70 629.63,612.92 C626.12,615.09 621.90,615.50 618.50,613.98 ZM 817.17 614.10 C816.26,613.54 816.60,612.17 818.50,608.77 L 821.06 604.19 L 818.90 596.35 C815.41,583.67 815.43,584.00 818.22,584.00 C821.21,584.00 823.00,587.38 823.00,593.05 C823.00,598.66 824.93,598.04 828.58,591.23 C830.66,587.35 832.35,585.40 833.83,585.18 C835.44,584.94 836.00,585.38 836.00,586.87 C836.00,587.98 835.55,589.16 834.99,589.50 C834.44,589.85 833.15,591.79 832.12,593.81 C827.02,603.92 821.42,613.24 819.99,614.01 C819.11,614.48 817.84,614.52 817.17,614.10 ZM 645.20 609.33 C641.38,607.45 639.00,603.46 639.00,598.95 C639.00,596.70 639.97,594.83 642.40,592.40 C646.92,587.88 652.33,587.64 656.30,591.79 C661.96,597.70 660.73,605.50 653.58,608.96 C648.59,611.38 649.30,611.35 645.20,609.33 ZM 653.00 604.00 C655.43,601.57 655.57,598.29 653.35,595.83 C651.47,593.75 646.99,593.41 645.20,595.20 C643.35,597.05 643.78,601.38 646.04,603.81 C648.57,606.53 650.42,606.58 653.00,604.00 ZM 665.63 606.22 C665.33,605.72 664.57,601.15 663.95,596.05 C662.75,586.16 663.31,583.95 666.57,585.78 C667.79,586.46 669.36,586.33 671.73,585.34 C674.71,584.09 675.51,584.11 678.23,585.46 C681.03,586.86 681.50,586.86 683.04,585.46 C683.98,584.61 686.37,583.65 688.36,583.33 C691.48,582.82 692.35,583.16 694.88,585.87 C697.17,588.33 697.96,590.32 698.51,595.09 C699.30,601.91 698.24,604.27 695.22,602.37 C694.13,601.69 693.26,599.39 692.86,596.15 C691.95,588.83 691.46,588.00 688.09,588.00 C684.11,588.00 683.50,589.27 683.50,597.50 C683.50,603.83 683.31,604.50 681.50,604.50 C679.80,604.50 679.33,603.46 678.37,597.64 C677.27,590.88 676.09,589.05 672.87,589.02 C669.75,588.99 668.77,591.67 669.14,599.21 C669.44,605.33 669.24,606.51 667.84,606.78 C666.93,606.96 665.94,606.71 665.63,606.22 ZM 805.75 601.84 C802.54,600.67 801.51,597.67 802.30,591.79 C802.66,589.10 802.36,586.95 801.42,585.51 C800.13,583.55 800.19,583.14 801.99,581.51 C803.10,580.51 804.00,579.13 804.00,578.45 C804.00,577.77 804.62,576.98 805.38,576.69 C806.94,576.08 809.00,577.77 809.00,579.66 C809.00,580.36 809.90,581.41 811.00,582.00 C813.68,583.43 813.53,585.44 810.64,586.75 C808.87,587.56 808.14,588.91 807.68,592.16 C807.15,595.99 807.38,596.72 809.57,598.36 C811.54,599.82 811.82,600.51 810.91,601.61 C809.59,603.20 809.48,603.20 805.75,601.84 ZM 703.61 597.81 C702.47,588.59 702.33,582.92 703.22,582.36 C703.73,582.05 707.10,581.59 710.70,581.35 C715.83,581.00 717.64,581.27 719.07,582.57 C720.78,584.11 721.08,584.08 723.59,582.11 C728.54,578.21 735.22,580.35 736.41,586.22 C738.53,596.68 737.51,601.90 733.63,600.41 C732.47,599.97 731.97,598.44 731.90,595.14 C731.73,587.13 730.89,585.50 726.95,585.50 L 723.50 585.50 L 723.21 593.30 C722.99,599.04 722.53,601.24 721.44,601.66 C718.58,602.76 717.00,600.02 717.00,593.95 C717.00,586.39 714.27,583.28 710.00,585.98 C708.89,586.68 708.50,588.83 708.50,594.21 C708.50,600.94 708.33,601.52 706.32,601.81 C704.43,602.08 704.07,601.54 703.61,597.81 ZM 791.00 592.62 C791.00,582.87 792.12,580.06 795.49,581.36 C796.67,581.81 797.00,583.77 797.00,590.39 C797.00,600.49 796.53,602.00 793.39,602.00 C791.04,602.00 791.00,601.85 791.00,592.62 ZM 746.15 599.42 C742.48,597.88 740.70,592.88 741.18,585.51 C741.43,581.59 741.90,580.44 743.36,580.17 C746.35,579.60 747.47,581.67 748.00,588.80 C748.47,595.11 748.65,595.52 751.09,595.80 C754.76,596.23 755.85,594.33 756.20,586.96 C756.49,580.82 756.62,580.50 759.00,580.50 C761.47,580.50 761.50,580.63 761.79,589.77 C762.00,596.65 761.74,599.14 760.79,599.44 C757.24,600.56 748.84,600.55 746.15,599.42 ZM 767.19 599.73 C766.47,598.86 766.22,595.50 766.51,590.43 C766.76,586.07 766.97,582.01 766.98,581.40 C766.99,580.69 769.68,580.34 774.60,580.42 C781.61,580.53 782.39,580.76 784.60,583.32 C786.54,585.58 787.00,587.23 787.00,591.97 C787.00,599.39 786.36,601.00 783.44,601.00 C781.19,601.00 781.07,600.64 780.79,593.25 L 780.50 585.50 L 776.78 585.19 C772.54,584.84 772.21,585.49 771.76,594.99 C771.49,600.71 769.62,602.65 767.19,599.73 ZM 793.01 577.51 C791.35,575.51 792.46,573.00 795.00,573.00 C796.13,573.00 797.32,573.68 797.64,574.51 C798.22,576.01 796.46,579.00 795.00,579.00 C794.58,579.00 793.69,578.33 793.01,577.51 ZM 636.65 485.17 C634.20,482.46 634.63,479.73 638.03,476.48 C640.42,474.18 641.88,473.61 645.03,473.74 L 649.00 473.89 L 649.00 464.65 C649.00,459.29 649.46,454.94 650.09,454.31 C650.84,453.56 652.35,453.51 654.84,454.15 C663.23,456.31 665.19,458.80 662.53,463.95 C660.56,467.75 658.83,467.90 659.21,464.25 C659.48,461.73 659.18,461.47 655.75,461.19 L 652.00 460.88 L 652.00 468.70 C652.00,478.11 650.89,482.44 647.81,485.01 C644.81,487.51 638.85,487.60 636.65,485.17 ZM 808.00 353.01 C806.08,349.75 800.63,341.32 795.89,334.29 C785.43,318.74 784.05,314.44 786.50,305.01 C789.54,293.28 798.96,285.17 810.64,284.24 C818.65,283.59 824.66,285.73 830.84,291.41 C839.31,299.18 842.03,309.69 838.18,319.74 C837.17,322.36 831.55,331.74 825.68,340.58 C819.80,349.42 815.00,357.19 815.00,357.83 C815.00,358.47 814.21,358.99 813.25,358.97 C812.19,358.96 810.12,356.62 808.00,353.01 ZM 820.75 321.34 C826.83,316.78 828.43,310.81 825.33,304.28 C820.91,294.98 806.39,294.39 800.96,303.30 C796.67,310.33 799.62,319.55 807.27,323.05 C812.28,325.34 816.06,324.86 820.75,321.34 Z" fill="rgba(233,136,94,1)"/>
</g>
</svg>